<?xml version="1.0" encoding="utf-8"?>
<!-- Generator: Adobe Illustrator 27.3.1, SVG Export Plug-In . SVG Version: 6.00 Build 0)  -->
<svg version="1.1" id="acorn" xmlns="http://www.w3.org/2000/svg" xmlns:xlink="http://www.w3.org/1999/xlink" x="0px" y="0px"
	 viewBox="0 0 48 48" style="enable-background:new 0 0 48 48;" xml:space="preserve">
<style type="text/css">
	.st0{fill:none;stroke:#2E1A47;stroke-width:2;stroke-miterlimit:10;}
</style>
<path class="st0" d="M7.9,21.4c-1.2,0-2.2-1.1-2-2.3C7,12.2,13,6.9,20.2,6.9h7.5c7.2,0,13.2,5.3,14.3,12.2c0.2,1.2-0.7,2.3-2,2.3
	l-1.5,0l-29.3,0L7.9,21.4z"/>
<path class="st0" d="M9.5,21.4v5.3c0,7.5,4,14.5,10.5,18.3l3,1.7c0.6,0.4,1.4,0.4,2,0l3-1.7c6.3-3.6,10.2-10.2,10.5-17.4"/>
<path class="st0" d="M24,6.9V5.8C24,3.2,26.2,1,28.8,1h0"/>
</svg>
