<svg width="24" height="24" viewBox="0 0 24 24" fill="none" xmlns="http://www.w3.org/2000/svg">
<path d="M20.1464 6.64641C20.1464 10.2268 18.7241 13.6606 16.1924 16.1924C13.6606 18.7241 10.2268 20.1464 6.64641 20.1464L3.99996 17.5C3.95353 17.4535 3.9167 17.3984 3.89158 17.3378C3.86645 17.2771 3.85352 17.2121 3.85352 17.1464C3.85352 17.0807 3.86645 17.0157 3.89158 16.9551C3.9167 16.8944 3.95353 16.8393 3.99996 16.7929L7.29285 13.5C7.33928 13.4535 7.3944 13.4167 7.45507 13.3916C7.51573 13.3664 7.58075 13.3535 7.64641 13.3535C7.71207 13.3535 7.77709 13.3664 7.83775 13.3916C7.89841 13.4167 7.95353 13.4535 7.99996 13.5L9.64641 15.1464C10.3687 15.1464 11.0839 15.0041 11.7512 14.7277C12.4185 14.4513 13.0248 14.0462 13.5355 13.5355C14.0462 13.0248 14.4513 12.4185 14.7277 11.7512C15.0041 11.0839 15.1464 10.3687 15.1464 9.64641L13.5 7.99996C13.4535 7.95353 13.4167 7.89841 13.3916 7.83775C13.3664 7.77709 13.3535 7.71207 13.3535 7.64641C13.3535 7.58075 13.3664 7.51573 13.3916 7.45507C13.4167 7.3944 13.4535 7.33928 13.5 7.29285L16.7929 3.99996C16.8393 3.95353 16.8944 3.9167 16.9551 3.89158C17.0157 3.86645 17.0807 3.85352 17.1464 3.85352C17.2121 3.85352 17.2771 3.86645 17.3378 3.89158C17.3984 3.9167 17.4535 3.95353 17.5 3.99996L20.1464 6.64641Z" stroke="#2E1A47" stroke-width="2" stroke-linecap="round" stroke-linejoin="round"/>
</svg>
