<?xml version="1.0" encoding="utf-8"?>
<!-- Generator: Adobe Illustrator 27.3.1, SVG Export Plug-In . SVG Version: 6.00 Build 0)  -->
<svg version="1.1" id="oak-leaf" xmlns="http://www.w3.org/2000/svg" xmlns:xlink="http://www.w3.org/1999/xlink" x="0px" y="0px"
	 viewBox="0 0 48 48" style="enable-background:new 0 0 48 48;" xml:space="preserve">
<style type="text/css">
	.st0{fill:none;stroke:#2E1848;stroke-width:2;stroke-miterlimit:10;}
</style>
<line class="st0" x1="30.6" y1="17.5" x2="4.6" y2="43.5"/>
<line class="st0" x1="17.2" y1="30.9" x2="26.4" y2="33.4"/>
<line class="st0" x1="22.1" y1="17.7" x2="23.9" y2="24.2"/>
<path class="st0" d="M10.2,37.9l3.8,0.9c4.1,1,7.8,3.1,10.8,6l0.4,0.4c2.4,2.4,6.3,2.4,8.7,0l0,0c2.4-2.4,2.4-6.3,0-8.7l-1.4-1.4
	c-1.1-1.1-1.1-2.8,0-3.9l0,0c0.7-0.7,1.7-1,2.7-0.7l6.5,1.7c2.3,0.6,4.7-0.8,5.3-3.1l0,0c0.6-2.3-0.8-4.7-3.1-5.4l-1.7-0.4
	c-2.6-0.7-4-3.7-2.5-5.9c0.4-0.6,1.5-2,2.2-2.8c0.5-0.7,1-1.4,1.2-2.2c0.5-2-0.1-4.2-1.6-5.7l0,0c0,0,0,0,0,0
	c-1.6-1.6-4.1-2.2-6.2-1.4c-0.6,0.2-1.1,0.6-1.6,1c-0.8,0.7-2.3,1.8-2.9,2.2c-2.2,1.5-5.3,0.1-5.9-2.5l-0.4-1.7
	c-0.6-2.3-3-3.7-5.4-3.1l0,0c-2.3,0.6-3.7,2.9-3.1,5.3l1.7,6.5c0.3,1,0,2-0.7,2.7l0,0c-1.1,1.1-2.8,1.1-3.9,0l-1.4-1.4
	c-2.4-2.4-6.3-2.4-8.7,0l0,0c-2.4,2.4-2.4,6.3,0,8.7l0.4,0.4c2.3,2.3,4.1,5.1,5.2,8.2"/>
</svg>
