<?xml version="1.0" encoding="utf-8"?>
<!-- Generator: Adobe Illustrator 27.3.1, SVG Export Plug-In . SVG Version: 6.00 Build 0)  -->
<svg version="1.1" id="person-stars" xmlns="http://www.w3.org/2000/svg" xmlns:xlink="http://www.w3.org/1999/xlink" x="0px"
	 y="0px" viewBox="0 0 48 48" style="enable-background:new 0 0 48 48;" xml:space="preserve">
<style type="text/css">
	.st0{fill:none;stroke:#FFFFFF;stroke-width:2;stroke-miterlimit:10;}
</style>
<path class="st0" d="M26.3,29.8l-1.7-3c-0.2-0.4-0.7-0.4-1,0l-2.8,5l-4.7,0.7c-0.4,0.1-0.7,0.6-0.3,1l3.7,3.8l-1,5.6
	c-0.1,0.4,0.4,0.8,0.8,0.6l4.7-2.7l1,0.6l1,0.6l2.7,1.6c0.4,0.2,0.9-0.1,0.8-0.6l-1-5.6l3.7-3.8c0.3-0.3,0.1-0.9-0.3-1l-4.7-0.7
	L26.3,29.8z"/>
<path class="st0" d="M8.6,37.2l-1.2-2.1c-0.2-0.3-0.5-0.3-0.7,0l-2,3.6l-3.4,0.4c-0.3,0.1-0.5,0.4-0.2,0.7l2.7,2.7l-0.7,4
	c-0.1,0.3,0.3,0.6,0.6,0.4L7,45l0.7,0.4l0.7,0.4l2,1.1c0.3,0.2,0.6-0.1,0.6-0.4l-0.7-4l2.7-2.7c0.2-0.2,0.1-0.6-0.2-0.7l-3.4-0.5
	L8.6,37.2z"/>
<path class="st0" d="M42.3,37.2l-1.2-2.1c-0.2-0.3-0.5-0.3-0.7,0l-2,3.6l-3.3,0.4c-0.3,0.1-0.5,0.4-0.2,0.7l2.7,2.7l-0.7,4
	c-0.1,0.3,0.3,0.6,0.6,0.4l3.4-2l0.7,0.4l0.7,0.4l2,1.1c0.3,0.2,0.6-0.1,0.6-0.4l-0.7-4l2.7-2.7c0.2-0.2,0.1-0.6-0.2-0.7l-3.4-0.5
	L42.3,37.2z"/>
<path class="st0" d="M10.8,26.3v-5.2c0-1.1,0.9-2,2-2h22.3c1.1,0,2.1,1,2.1,2.1v5.2"/>
<path class="st0" d="M17.8,7.2C17.8,3.8,20.5,1,24,1s6.2,2.8,6.2,6.2c0,3.5-2.8,6.2-6.2,6.2C20.4,13.5,17.8,10.7,17.8,7.2z"/>
</svg>
