<svg width="102" height="44" viewBox="0 0 102 44" fill="none" xmlns="http://www.w3.org/2000/svg">
<path d="M75.752 42.6344C71.7544 42.6344 68.5138 39.3558 68.5138 35.3116C68.5138 31.2673 71.7544 27.9888 75.752 27.9888C79.7496 27.9888 82.9902 31.2673 82.9902 35.3116C82.9902 39.3558 79.7496 42.6344 75.752 42.6344Z" stroke="white" stroke-width="2" stroke-linecap="round" stroke-linejoin="round"/>
<path d="M28.7042 42.6344C24.7066 42.6344 21.4659 39.3558 21.4659 35.3116C21.4659 31.2673 24.7066 27.9888 28.7042 27.9888C32.7017 27.9888 35.9424 31.2673 35.9424 35.3116C35.9424 39.3558 32.7017 42.6344 28.7042 42.6344Z" stroke="white" stroke-width="2" stroke-linecap="round" stroke-linejoin="round"/>
<path d="M62.5283 34.6504H41.1426" stroke="white" stroke-width="2" stroke-linecap="round" stroke-linejoin="round"/>
<path d="M88.9781 34.6501H101V21.0925C101 21.0925 100.852 14.5601 84.7097 13.7725C84.8528 13.7373 76.036 2.09739 67.1858 1.64132C59.9727 1.27321 52.7461 1.27321 45.533 1.64132C35.7531 1.92146 25.901 13.7725 25.901 13.7725C25.901 13.7725 12.2684 14.9079 8.24326 15.3721C4.21815 15.8363 -0.174749 21.3727 1.28734 34.6501" stroke="white" stroke-width="2" stroke-linecap="round" stroke-linejoin="round"/>
<path d="M15.4795 34.6504H1.94748" stroke="white" stroke-width="2" stroke-linecap="round" stroke-linejoin="round"/>
</svg>
