<svg width="61" height="71" viewBox="0 0 61 71" fill="none" xmlns="http://www.w3.org/2000/svg">
<path d="M24.3496 40.7332L40.5571 35.7201" stroke="white" stroke-width="2" stroke-linecap="round" stroke-linejoin="round"/>
<path d="M40.2089 48.2614C40.6707 48.8211 41.0029 49.4778 41.1817 50.1843C41.3605 50.8907 41.3814 51.6293 41.2429 52.3466C41.1043 53.0639 40.8098 53.7421 40.3806 54.3322C39.9513 54.9224 39.3981 55.4098 38.7607 55.7592C38.1234 56.1087 37.4178 56.3115 36.695 56.353C35.9722 56.3945 35.2501 56.2737 34.5808 55.9993C33.9116 55.7249 33.3119 55.3038 32.825 54.7663C32.3381 54.2288 31.9761 53.5883 31.7652 52.891C31.5777 52.2696 31.5149 51.6161 31.5806 50.9685" stroke="white" stroke-width="2" stroke-linejoin="round"/>
<path d="M22.0987 13.259C21.6831 12.9428 21.3481 12.5315 21.1211 12.0587C20.8942 11.5859 20.7817 11.065 20.7928 10.5386C20.8039 10.0123 20.9384 9.49534 21.1852 9.03015C21.432 8.56496 21.7841 8.16471 22.2127 7.86211C22.6414 7.55952 23.1344 7.36317 23.6515 7.28914C24.1686 7.2151 24.695 7.26548 25.1878 7.43614C25.6806 7.60681 26.1257 7.89292 26.4867 8.27108C26.8478 8.64924 27.1145 9.10871 27.2651 9.61193C27.4671 10.2825 27.4527 11.0015 27.224 11.6656" stroke="white" stroke-width="2" stroke-linejoin="round"/>
<path d="M35.8194 49.5763L13.3215 56.5705C14.7033 53.0756 17.6313 47.5451 16.4928 43.7585C12.7851 31.4269 11.3458 16.4688 24.6552 12.3312C37.9645 8.19366 44.9915 21.4146 48.6993 33.7462C49.8375 37.5319 55.3085 40.4524 58.3757 42.563L35.8826 49.5557" stroke="white" stroke-width="2" stroke-linecap="round" stroke-linejoin="round"/>
<path d="M52.7619 52.9703L59.1943 55.338" stroke="white" stroke-width="2.00056" stroke-linecap="round"/>
<path d="M49.5735 57.7998L52.9067 62.2817" stroke="white" stroke-width="2.00056" stroke-linecap="round"/>
<path d="M25.4912 60.891L20.4058 65.5234" stroke="white" stroke-width="2" stroke-linecap="round"/>
<path d="M30.2373 64.16L28.8074 69.5775" stroke="white" stroke-width="2" stroke-linecap="round"/>
</svg>
