<svg width="63" height="67" viewBox="0 0 63 67" fill="none" xmlns="http://www.w3.org/2000/svg">
<path d="M31.5875 48.6493C40.262 48.6493 47.2941 41.8819 47.2941 33.5339C47.2941 25.1859 40.262 18.4185 31.5875 18.4185C22.913 18.4185 15.8809 25.1859 15.8809 33.5339C15.8809 41.8819 22.913 48.6493 31.5875 48.6493Z" stroke="white" stroke-width="2"/>
<path d="M58.7639 40.8894L57.2283 39.9476C56.7187 39.596 56.2964 39.1324 55.9938 38.5923C55.6912 38.0521 55.5164 37.4498 55.4828 36.8316V30.1773C55.5152 29.5594 55.6889 28.9572 55.9906 28.417C56.2924 27.8767 56.714 27.413 57.2232 27.0614L58.7588 26.1195C59.8256 25.4625 60.5955 24.4168 60.9058 23.2029C61.2162 21.9891 61.0429 20.7021 60.4223 19.6137L57.991 15.3908C57.5657 14.6598 56.9557 14.0535 56.2221 13.6326C55.4886 13.2117 54.6573 12.991 53.8116 12.9927C53.0246 12.9931 52.25 13.1897 51.5581 13.5647L49.9534 14.4349C49.4182 14.7049 48.8251 14.8398 48.2258 14.8277C47.5843 14.8405 46.95 14.6895 46.3831 14.3888L40.6182 11.0617C40.0988 10.7237 39.6639 10.2711 39.3469 9.73864C39.0299 9.20621 38.8392 8.60815 38.7896 7.99047L38.7435 6.16439C38.7021 4.91613 38.1782 3.73258 37.2821 2.86266C36.3859 1.99275 35.1873 1.50428 33.9383 1.5H29.0667C27.8146 1.51032 26.6151 2.00499 25.7198 2.8803C24.8244 3.75561 24.3027 4.94357 24.2641 6.1951L24.2167 7.98663C24.1676 8.60429 23.9773 9.20243 23.6605 9.73491C23.3436 10.2674 22.9088 10.72 22.3894 11.0578L16.6232 14.385C16.0566 14.6852 15.4228 14.8359 14.7817 14.8226C14.1823 14.8349 13.5889 14.7009 13.0529 14.4323L11.4712 13.5762C10.3694 12.979 9.07831 12.834 7.87142 13.172C6.66453 13.5099 5.63653 14.3043 5.00507 15.3869L2.5737 19.6099C1.95611 20.699 1.78439 21.985 2.09456 23.198C2.40473 24.411 3.17269 25.4567 4.23727 26.1157L5.77287 27.0575C6.28247 27.4086 6.70487 27.8718 7.00766 28.4115C7.31045 28.9512 7.48558 29.553 7.51962 30.1709V36.8252C7.48622 37.4429 7.31205 38.0448 7.01042 38.5848C6.70878 39.1249 6.28767 39.5888 5.77927 39.9412L4.24367 40.8805C3.17691 41.5382 2.40722 42.5844 2.09687 43.7986C1.78652 45.0127 1.95978 46.3 2.5801 47.3889L5.01147 51.6118C5.43669 52.3436 6.04695 52.9507 6.781 53.3721C7.51504 53.7934 8.34703 54.0143 9.19342 54.0124C9.98045 54.012 10.755 53.8154 11.4469 53.4404C12.5684 52.7474 13.8425 52.3397 15.158 52.2529C15.6707 52.2386 16.178 52.3619 16.627 52.6099L22.3919 55.937C22.911 56.2754 23.3456 56.7281 23.6626 57.2605C23.9796 57.7928 24.1704 58.3907 24.2206 59.0082L24.2666 60.8343C24.3067 62.0822 24.8294 63.2659 25.7248 64.1362C26.6201 65.0064 27.8181 65.4953 29.0667 65.5H33.9383C35.1903 65.4913 36.3901 64.9977 37.2857 64.1229C38.1813 63.248 38.7029 62.0601 38.7409 60.8087L38.7883 59.0108C38.8372 58.3931 39.0274 57.7949 39.3443 57.2624C39.6611 56.7299 40.0961 56.2773 40.6156 55.9396L46.3818 52.6125C46.9485 52.3125 47.5822 52.1614 48.2233 52.1735C48.823 52.1616 49.4165 52.2964 49.9521 52.5664L51.5338 53.4225C52.6361 54.0194 53.9275 54.1638 55.1344 53.8251C56.3414 53.4864 57.3691 52.6912 57.9999 51.6079L60.4313 47.385C61.0457 46.2965 61.2153 45.0125 60.9045 43.8017C60.5937 42.591 59.8267 41.5474 58.7639 40.8894V40.8894Z" stroke="white" stroke-width="2"/>
<path d="M30.8441 42.9395V41.0123H28.2387C27.3832 41.0178 26.5604 40.6843 25.9501 40.0848C25.3398 39.4853 24.9917 38.6686 24.9819 37.8132C24.9819 37.7283 24.9988 37.6442 25.0316 37.5659C25.0644 37.4876 25.1124 37.4166 25.1729 37.3571C25.2334 37.2975 25.3052 37.2506 25.384 37.2191C25.4628 37.1875 25.5471 37.172 25.632 37.1733C25.717 37.1718 25.8014 37.1872 25.8804 37.2187C25.9594 37.2502 26.0313 37.2971 26.0919 37.3566C26.1525 37.4162 26.2007 37.4872 26.2336 37.5656C26.2664 37.644 26.2834 37.7282 26.2834 37.8132C26.2891 38.3265 26.4979 38.8166 26.8641 39.1763C27.2303 39.5361 27.7241 39.7361 28.2374 39.7327H30.8441V33.9614H28.2387C27.3831 33.9672 26.5601 33.6338 25.9497 33.0343C25.3394 32.4347 24.9914 31.6177 24.9819 30.7622V28.8427C24.9897 27.9859 25.3369 27.1672 25.9474 26.5661C26.5579 25.9649 27.3819 25.6304 28.2387 25.6359H30.8441V23.7164C30.8515 23.5488 30.9233 23.3905 31.0445 23.2746C31.1658 23.1586 31.327 23.0939 31.4948 23.0939C31.6626 23.0939 31.8238 23.1586 31.9451 23.2746C32.0663 23.3905 32.1381 23.5488 32.1455 23.7164V25.6359H34.7496C35.6049 25.6307 36.4274 25.9644 37.0374 26.5638C37.6474 27.1633 37.9953 27.9798 38.0051 28.835C38.0051 28.9206 37.9883 29.0053 37.9555 29.0843C37.9228 29.1633 37.8748 29.2351 37.8143 29.2956C37.7538 29.3561 37.682 29.4041 37.603 29.4368C37.524 29.4695 37.4393 29.4864 37.3538 29.4864C37.2682 29.4864 37.1835 29.4695 37.1045 29.4368C37.0255 29.4041 36.9537 29.3561 36.8932 29.2956C36.8327 29.2351 36.7847 29.1633 36.752 29.0843C36.7193 29.0053 36.7024 28.9206 36.7024 28.835C36.6967 28.322 36.488 27.832 36.1221 27.4723C35.7562 27.1126 35.2627 26.9125 34.7496 26.9155H32.1455V32.6868H34.7496C35.6061 32.6814 36.4297 33.0158 37.04 33.6167C37.6503 34.2176 37.9973 35.036 38.0051 35.8924V37.8119C37.996 38.6674 37.6483 39.4845 37.0382 40.0843C36.4281 40.6841 35.6052 41.0178 34.7496 41.0123H32.1455V42.9318C32.1381 43.0994 32.0663 43.2577 31.9451 43.3736C31.8238 43.4896 31.6626 43.5543 31.4948 43.5543C31.327 43.5543 31.1658 43.4896 31.0445 43.3736C30.9233 43.2577 30.8515 43.0994 30.8441 42.9318V42.9395ZM34.7496 39.7327C35.2629 39.7358 35.7564 39.5356 36.1226 39.176C36.4887 38.8163 36.6976 38.3264 36.7037 37.8132V35.8937C36.6983 35.3803 36.4896 34.8899 36.1233 34.5301C35.757 34.1703 35.2631 33.9704 34.7496 33.9742H32.1455V39.7327H34.7496ZM26.2846 28.8325V30.752C26.2904 31.2653 26.4992 31.7554 26.8654 32.1151C27.2316 32.4748 27.7254 32.6749 28.2387 32.6715H30.8441V26.9002H28.2387C27.9833 26.8985 27.7301 26.9472 27.4936 27.0435C27.2571 27.1398 27.042 27.2819 26.8604 27.4615C26.6789 27.6411 26.5346 27.8548 26.4358 28.0903C26.337 28.3257 26.2856 28.5784 26.2846 28.8337V28.8325Z" fill="white" stroke="white" stroke-miterlimit="10"/>
</svg>
