<svg width="68" height="69" viewBox="0 0 68 69" fill="none" xmlns="http://www.w3.org/2000/svg">
<rect x="3.90234" y="30.0358" width="55.724" height="37.9628" rx="1" fill="#E5F5F5" stroke="#2E1A47" stroke-width="2"/>
<rect x="36.0947" y="30.0359" width="23.5318" height="37.9628" rx="1" fill="white" stroke="#2E1A47" stroke-width="2"/>
<rect x="3.90234" y="30.0358" width="22.4217" height="37.9628" rx="1" fill="white" stroke="#2E1A47" stroke-width="2"/>
<rect x="1" y="21.9995" width="62.3845" height="10.2108" rx="1" fill="white" stroke="#2E1A47" stroke-width="2"/>
<rect x="24.3242" y="22.1038" width="14.6512" height="10.2108" rx="1" fill="#E5F5F5" stroke="#2E1A47" stroke-width="2"/>
<path d="M41.6453 11.1822C35.0994 12.4122 33.1815 19.1876 32.2717 21.7832L42.2622 21.7246C51.6827 21.6693 50.2874 9.55834 41.6453 11.1822Z" stroke="#2E1A47" stroke-width="2"/>
<path d="M22.0731 11.2966C28.633 12.4497 30.6303 19.2021 31.5705 21.7868L21.58 21.8455C12.1595 21.9007 13.4126 9.7742 22.0731 11.2966Z" stroke="#2E1A47" stroke-width="2"/>
<path d="M53.6191 9.68616L58.7635 4.48389" stroke="#2E1A47" stroke-width="2" stroke-miterlimit="10" stroke-linecap="round"/>
<path d="M49.3729 6.00035L51.21 1.06977" stroke="#2E1A47" stroke-width="2" stroke-miterlimit="10" stroke-linecap="round"/>
<path d="M56.1963 14.475L61.3744 12.7485" stroke="#2E1A47" stroke-width="2" stroke-miterlimit="10" stroke-linecap="round"/>
</svg>
