<?xml version="1.0" encoding="utf-8"?>
<!-- Generator: Adobe Illustrator 27.4.1, SVG Export Plug-In . SVG Version: 6.00 Build 0)  -->
<svg version="1.1" id="Layer_1" xmlns="http://www.w3.org/2000/svg" xmlns:xlink="http://www.w3.org/1999/xlink" x="0px" y="0px"
	 viewBox="0 0 44 55" style="enable-background:new 0 0 44 55;" xml:space="preserve">
<style type="text/css">
	.st0{fill:none;stroke:#FFFFFF;stroke-width:2;stroke-linecap:round;stroke-linejoin:round;}
	.st1{fill:none;stroke:#FFFFFF;stroke-width:2;stroke-linecap:round;}
</style>
<path class="st0" d="M28.5,41.5h-13V37L10,29c-1.5-2.3-3.6-8.5,0-14.5c3.6-6,8.5-7,12-7c4,0,8.8,1.4,12,7c3.2,5.6,1.5,12,0,14.5
	l-5.5,8"/>
<path class="st1" d="M16,45l12,1"/>
<path class="st1" d="M16,49l12,1"/>
<path class="st1" d="M18,54h8"/>
<path class="st1" d="M22,4V1"/>
<path class="st1" d="M43,22h-3"/>
<path class="st1" d="M4,22H1"/>
<path class="st1" d="M38.6,9.2L36.2,11"/>
<path class="st1" d="M7.8,33l-2.4,1.8"/>
<path class="st1" d="M38.6,34.9l-2.4-1.8"/>
<path class="st1" d="M7.8,10.9L5.4,9.1"/>
</svg>
