<svg xmlns="http://www.w3.org/2000/svg" width="33.699" height="41" viewBox="0 0 33.699 41">
  <g id="noun_Money_Bag_2524651" data-name="noun_Money Bag_2524651" transform="translate(-16.823 -9.5)">
    <path id="Path_9995" data-name="Path 9995" d="M17.487,43.012A7.788,7.788,0,0,0,22.019,48.7,12.745,12.745,0,0,0,27.794,50H39.552a12.745,12.745,0,0,0,5.774-1.3,7.788,7.788,0,0,0,4.532-5.691c1.323-7.32-7.017-17.409-9.29-20a2.292,2.292,0,0,0-.589-4.336,8.421,8.421,0,0,0,2.2-5.185.5.5,0,0,0-.5-.5H39.26a7.5,7.5,0,0,0,.117-2.563.5.5,0,0,0-.5-.431H28.464a.5.5,0,0,0-.5.431,7.5,7.5,0,0,0,.117,2.563H25.664a.5.5,0,0,0-.5.5,8.421,8.421,0,0,0,2.2,5.185,2.292,2.292,0,0,0-.589,4.336C24.5,25.6,16.164,35.692,17.487,43.012ZM41.155,13.994a8.574,8.574,0,0,1-2.5,4.646H36.517A16.26,16.26,0,0,0,39,13.994ZM28.917,11h9.513c.2,3.333-2.536,6.853-3.187,7.639H32.1C31.453,17.853,28.716,14.333,28.917,11Zm-.566,2.994a16.26,16.26,0,0,0,2.478,4.646H28.692a8.574,8.574,0,0,1-2.5-4.646Zm-.594,5.646H39.589a1.3,1.3,0,1,1,0,2.6H27.757a1.3,1.3,0,1,1,0-2.6Zm.158,3.6H39.431c1.294,1.442,10.763,12.3,9.444,19.593a6.839,6.839,0,0,1-4,4.974A11.758,11.758,0,0,1,39.552,49H27.794a11.758,11.758,0,0,1-5.326-1.191,6.839,6.839,0,0,1-4-4.974C17.152,35.539,26.621,24.684,27.915,23.242Z" transform="translate(0)" fill="#2e1a47" stroke="#2e1a47" stroke-width="1"/>
    <path id="Path_9996" data-name="Path 9996" d="M46.888,55.923h.131a2.644,2.644,0,1,1-2.655,2.644.557.557,0,1,0-1.115,0,3.766,3.766,0,0,0,3.082,3.693v.9a.557.557,0,0,0,1.115,0V62.3a3.757,3.757,0,0,0-.427-7.491h-.131a2.644,2.644,0,1,1,2.655-2.644.557.557,0,1,0,1.115,0,3.765,3.765,0,0,0-3.213-3.713v-.881a.557.557,0,0,0-1.115,0v.881a3.755,3.755,0,0,0,.557,7.471Z" transform="translate(-13.28 -19.777)" fill="#2e1a47" stroke="#2e1a47" stroke-width="1"/>
  </g>
</svg>
