<svg width="102" height="57" viewBox="0 0 102 57" fill="none" xmlns="http://www.w3.org/2000/svg">
<path d="M9.82353 49.2206H2C1.44772 49.2206 1 48.7729 1 48.2206V43.3382M84.0882 49.2206H100C100.552 49.2206 101 48.7729 101 48.2206V30.8382M101 30.8382H93.4412C92.3366 30.8382 91.4412 29.9428 91.4412 28.8382V18.8676C91.4412 17.7631 92.3366 16.8676 93.4412 16.8676H101M101 30.8382V16.8676M101 16.8676V9.0441C101 8.49181 100.553 8.0441 100 8.0441C95.127 8.0441 89.1384 8.0441 82.6176 8.0441M4.31548 16.8676C2.17618 20.6873 1.21839 24.9489 1 27.897V30.8382M4.31548 16.8676C6.97817 12.1135 11.4712 8.0441 18.6471 8.0441C24.7887 8.0441 38.6806 8.0441 53.9412 8.0441M4.31548 16.8676H19.5882C20.6928 16.8676 21.5882 17.7631 21.5882 18.8676V28.8382C21.5882 29.9428 20.6928 30.8382 19.5882 30.8382H1M1 30.8382V35.9853M1 35.9853H6.14706V43.3382H1M1 35.9853V43.3382M82.6176 8.0441V2.42645C82.6176 1.87417 82.1699 1.42645 81.6176 1.42645H54.9412C54.3889 1.42645 53.9412 1.87417 53.9412 2.42645V8.0441M82.6176 8.0441C73.5642 8.0441 63.485 8.0441 53.9412 8.0441" stroke="white" stroke-width="2"/>
<path d="M60.5586 49.2206H32.6174" stroke="white" stroke-width="2"/>
<circle r="6.35294" transform="matrix(-1 0 0 1 71.5885 49.2206)" stroke="white" stroke-width="2"/>
<circle r="6.35294" transform="matrix(-1 0 0 1 20.1178 49.2206)" stroke="white" stroke-width="2"/>
<rect x="-1" y="1" width="24.4706" height="14.1765" rx="1" transform="matrix(-1 0 0 1 79.8828 15.397)" stroke="white" stroke-width="2"/>
<rect x="-1" y="1" width="12.7059" height="25.9412" rx="1" transform="matrix(-1 0 0 1 47.5293 18.3382)" stroke="white" stroke-width="2"/>
</svg>
