<svg width="35" height="65" viewBox="0 0 35 65" fill="none" xmlns="http://www.w3.org/2000/svg">
<g clip-path="url(#clip0_49_2482)">
<path d="M24.324 53.6147C24.8615 53.6147 25.2988 53.1764 25.2988 52.6377C25.2988 52.5347 25.3068 52.4319 25.3226 52.3301L26.5201 44.6363C26.5206 44.6334 26.521 44.6306 26.5215 44.6277C26.6694 43.7037 27.1507 42.9999 27.4999 42.551C27.572 42.4582 27.6522 42.372 27.7395 42.2933C29.2976 40.8888 30.5257 39.2131 31.3897 37.3129C32.2833 35.3476 32.7363 33.2463 32.7363 31.0674C32.7363 27.0322 31.1649 23.2382 28.3115 20.3843C25.458 17.5303 21.6644 15.9585 17.6294 15.9585C13.5936 15.9585 9.79938 17.5303 6.9456 20.3844C4.09204 23.2382 2.52051 27.0322 2.52051 31.0674C2.52051 33.5078 3.08357 35.8358 4.19404 37.9867C5.25456 40.0409 6.8014 41.8545 8.66733 43.2316C8.84842 43.3652 9.00565 43.5285 9.1324 43.7144C9.38467 44.0846 9.71509 44.6397 9.85661 45.1821C9.87675 45.2593 9.89225 45.3376 9.90303 45.4166C10.0746 46.6743 10.6668 52.1901 10.692 52.4243C10.6996 52.4952 10.7034 52.5664 10.7034 52.6377C10.7034 53.1764 11.1406 53.6147 11.678 53.6147H24.324ZM24.324 55.6147H11.678C10.0356 55.6147 8.70337 54.2817 8.70337 52.6377C8.70337 52.6377 8.09107 46.9307 7.92139 45.687C7.87158 45.4961 7.70337 45.1689 7.47974 44.8408C3.25782 41.7251 0.520508 36.7168 0.520508 31.0674C0.520508 21.6201 8.17969 13.9585 17.6294 13.9585C27.0774 13.9585 34.7363 21.6201 34.7363 31.0674C34.7363 36.1128 32.553 40.647 29.0786 43.7788C28.7737 44.1709 28.5596 44.5488 28.4963 44.9438L27.2988 52.6377C27.2988 54.2817 25.9663 55.6147 24.324 55.6147Z" fill="#2E1A47"/>
<path d="M9.81836 57.8459H25.4384" stroke="#2E1A47" stroke-width="2" stroke-linecap="round"/>
<path d="M9.07471 60.821H26.1827" stroke="#2E1A47" stroke-width="2" stroke-linecap="round"/>
<path d="M11.3066 63.7969H23.9516" stroke="#2E1A47" stroke-width="2" stroke-linecap="round"/>
<path d="M20.604 49.2911V35.9021" stroke="#B0E0E2" stroke-width="2" stroke-linecap="round"/>
<path d="M15.3979 49.2911V35.9021" stroke="#B0E0E2" stroke-width="2" stroke-linecap="round"/>
<path d="M13.166 35.1589H22.836" stroke="#B0E0E2" stroke-width="2" stroke-linecap="round"/>
<path d="M23.2078 30.208C23.8303 30.208 24.4273 30.4553 24.8674 30.8954C25.3076 31.3356 25.5548 31.9325 25.5548 32.555C25.5548 33.1775 25.3076 33.7744 24.8674 34.2146C24.4273 34.6547 23.8303 34.902 23.2078 34.902H20.8608V32.555C20.8608 31.9325 21.1081 31.3356 21.5483 30.8954C21.9884 30.4553 22.5854 30.208 23.2078 30.208V30.208Z" stroke="#B0E0E2" stroke-width="2"/>
<path d="M12.7938 30.208C13.4162 30.208 14.0132 30.4553 14.4534 30.8954C14.8935 31.3356 15.1408 31.9325 15.1408 32.555V34.902H12.7938C12.1713 34.902 11.5743 34.6547 11.1342 34.2146C10.694 33.7744 10.4468 33.1775 10.4468 32.555V32.555C10.4468 31.9325 10.694 31.3356 11.1342 30.8954C11.5743 30.4553 12.1713 30.208 12.7938 30.208V30.208Z" stroke="#B0E0E2" stroke-width="2"/>
<path d="M11.9765 8.8231L9.52051 5.5481" stroke="#B0E0E2" stroke-width="2.5" stroke-linecap="round" stroke-linejoin="round"/>
<path d="M16.8887 7.1851V1.4541" stroke="#B0E0E2" stroke-width="2.5" stroke-linecap="round"/>
<path d="M22.6206 8.82206L25.1526 4.93506" stroke="#B0E0E2" stroke-width="2.5" stroke-linecap="round"/>
</g>
<defs>
<clipPath id="clip0_49_2482">
<rect width="34.216" height="64.592" fill="white" transform="translate(0.520508 0.204102)"/>
</clipPath>
</defs>
</svg>
