<svg width="102" height="55" viewBox="0 0 102 55" fill="none" xmlns="http://www.w3.org/2000/svg">
<path d="M6.26829 48.6667L1.94839 36.5069C1.48586 35.205 2.45134 33.8374 3.83299 33.8374H35.1463M94.0732 48.6667L96.1225 42.5186C96.5542 41.2236 95.5903 39.8862 94.2252 39.8862H90.561M90.561 39.8862H71.2918C70.7614 39.8862 70.2527 39.6755 69.8776 39.3004L65.0004 34.4232C64.6253 34.0481 64.1166 33.8374 63.5862 33.8374H35.1463M90.561 39.8862L82.2757 18.5287C81.9772 17.7591 81.2366 17.252 80.4111 17.252H60.7073M35.1463 33.8374L38.3659 25.5447M52.5122 17.252H42.9543C42.1291 17.252 41.3886 17.7589 41.0899 18.5282L38.3659 25.5447M52.5122 17.252L57.8455 0.666656M52.5122 17.252H60.7073M60.7073 17.252L63.374 9.0569M38.3659 25.5447H51.5366M55 25.5447H57.8M60.6 25.5447H63.4M66.2 25.5447H69" stroke="white" stroke-width="2" stroke-linejoin="round"/>
<path d="M1 46.6666C1.22222 49.1111 3.66667 53.7333 11.6667 52.6666C21.6667 51.3333 19 44.6666 25.6667 44.6666C32.3333 44.6666 31.2222 52.6666 38.5556 52.6666C45.8889 52.6666 45.6667 44.6666 52.6667 44.6666C59.6667 44.6666 59.4444 52.6666 65.4444 52.6666C71.4444 52.6666 72.3333 44.6666 79.6667 44.6666C87 44.6666 86.3333 53.3333 94.3333 53.3333C97.8683 53.3333 99.8413 52.2919 101 51.072" stroke="white" stroke-width="2"/>
</svg>
