<svg width="28" height="28" viewBox="0 0 28 28" fill="none" xmlns="http://www.w3.org/2000/svg">
<path d="M10.6666 9.99992C10.6666 9.11586 11.0178 8.26802 11.643 7.6429C12.2681 7.01777 13.1159 6.66659 14 6.66659C14.884 6.66659 15.7319 7.01777 16.357 7.6429C16.9821 8.26802 17.3333 9.11586 17.3333 9.99992C17.3333 12.6666 14 12.6666 14 15.3333V16.6666M14 21.9999V19.3333M26.6666 13.9999C26.6666 20.9955 20.9956 26.6666 14 26.6666C7.00437 26.6666 1.33331 20.9955 1.33331 13.9999C1.33331 7.00431 7.00437 1.33325 14 1.33325C20.9956 1.33325 26.6666 7.00431 26.6666 13.9999Z" stroke="#34363B" stroke-width="2" stroke-linejoin="round"/>
</svg>
