<svg width="24" height="24" viewBox="0 0 24 24" fill="none" xmlns="http://www.w3.org/2000/svg">
<path d="M5.03921 22C5.74011 22 6.41687 21.8745 7.06939 21.6234C7.72203 21.3472 8.29002 20.9454 8.77338 20.418C9.25673 19.8657 9.64344 19.2003 9.9335 18.4218C10.2236 17.6183 10.3686 16.6893 10.3686 15.6346C10.3686 11.6924 7.97583 7.14752 3.19031 2L1.5946e-07 5.20151C0.507485 5.70371 1.01509 6.24357 1.52258 6.8211C2.00593 7.39863 2.45315 7.98871 2.86399 8.59134C3.2507 9.16887 3.58902 9.75895 3.87908 10.3616C4.16914 10.9391 4.38669 11.479 4.53172 11.9812C3.15405 12.1067 2.05432 12.6466 1.23252 13.6008C0.410839 14.5549 1.5946e-07 15.6723 1.5946e-07 16.9529C1.5946e-07 17.6309 0.120777 18.2712 0.362454 18.8739C0.604131 19.4764 0.942576 20.0163 1.37755 20.4934C1.81264 20.9454 2.34438 21.3095 2.97276 21.5858C3.60115 21.8619 4.29004 22 5.03921 22ZM18.6707 22C19.3716 22 20.0483 21.8745 20.7009 21.6234C21.3535 21.3472 21.9214 20.9454 22.4048 20.418C22.8882 19.8657 23.2749 19.2003 23.5649 18.4218C23.855 17.6183 24 16.6893 24 15.6346C24 11.6924 21.6072 7.14752 16.8217 2L13.6314 5.20151C14.1389 5.70371 14.6465 6.24357 15.154 6.8211C15.6375 7.39863 16.0846 7.98871 16.4954 8.59134C16.8821 9.16887 17.2206 9.75895 17.5106 10.3616C17.8006 10.9391 18.0181 11.479 18.1631 11.9812C16.7855 12.1067 15.6857 12.6466 14.8641 13.6008C14.0423 14.5549 13.6314 15.6723 13.6314 16.9529C13.6314 17.6309 13.7522 18.2712 13.994 18.8739C14.2357 19.4764 14.574 20.0163 15.0091 20.4934C15.4441 20.9454 15.9758 21.3095 16.6042 21.5858C17.2326 21.8619 17.9214 22 18.6707 22Z" fill="#B0E0E2"/>
</svg>
