<svg width="24" height="24" viewBox="0 0 24 24" fill="none" xmlns="http://www.w3.org/2000/svg">
<path d="M18.9608 22C18.2599 22 17.5831 21.8745 16.9306 21.6234C16.278 21.3472 15.71 20.9454 15.2266 20.418C14.7433 19.8657 14.3566 19.2003 14.0665 18.4218C13.7764 17.6183 13.6314 16.6893 13.6314 15.6346C13.6314 11.6924 16.0242 7.14752 20.8097 2L24 5.20151C23.4925 5.70371 22.9849 6.24357 22.4774 6.8211C21.9941 7.39863 21.5468 7.98871 21.136 8.59134C20.7493 9.16887 20.411 9.75895 20.1209 10.3616C19.8309 10.9391 19.6133 11.479 19.4683 11.9812C20.8459 12.1067 21.9457 12.6466 22.7675 13.6008C23.5892 14.5549 24 15.6723 24 16.9529C24 17.6309 23.8792 18.2712 23.6375 18.8739C23.3959 19.4764 23.0574 20.0163 22.6225 20.4934C22.1874 20.9454 21.6556 21.3095 21.0272 21.5858C20.3989 21.8619 19.71 22 18.9608 22ZM5.32932 22C4.62842 22 3.95167 21.8745 3.29911 21.6234C2.64653 21.3472 2.07856 20.9454 1.59518 20.418C1.11179 19.8657 0.72508 19.2003 0.435055 18.4218C0.145018 17.6183 0 16.6893 0 15.6346C0 11.6924 2.39276 7.14752 7.17827 2L10.3686 5.20151C9.8611 5.70371 9.35349 6.24357 8.846 6.8211C8.36253 7.39863 7.91543 7.98871 7.50459 8.59134C7.11789 9.16887 6.77944 9.75895 6.48944 10.3616C6.19941 10.9391 5.98189 11.479 5.83687 11.9812C7.21453 12.1067 8.31427 12.6466 9.13594 13.6008C9.95774 14.5549 10.3686 15.6723 10.3686 16.9529C10.3686 17.6309 10.2478 18.2712 10.006 18.8739C9.76433 19.4764 9.42601 20.0163 8.99091 20.4934C8.55594 20.9454 8.0242 21.3095 7.39582 21.5858C6.76744 21.8619 6.07856 22 5.32932 22Z" fill="#B0E0E2"/>
</svg>
