<svg id="LinkedIn-High" xmlns="http://www.w3.org/2000/svg" width="32" height="32" viewBox="0 0 32 32">
  <rect id="_32x32px_Null_Bounding_Box" data-name="32x32px Null Bounding Box" width="32" height="32" fill="none"/>
  <g id="Group_14198" data-name="Group 14198" transform="translate(-83 -2025.333)">
    <path id="Path_10597" data-name="Path 10597" d="M87,2031.333v20a2,2,0,0,0,2,2h20a2,2,0,0,0,2-2v-20a2,2,0,0,0-2-2H89A2,2,0,0,0,87,2031.333Zm7.831,17.494H91.37v-10.413h3.461ZM93.1,2036.992h-.022a1.978,1.978,0,1,1,.022,0Zm14.212,11.835h-3.461v-5.572c0-1.4-.5-2.354-1.754-2.354a1.892,1.892,0,0,0-1.775,1.266,2.357,2.357,0,0,0-.114.845v5.815H96.747s.046-9.436,0-10.413h3.461v1.474a3.437,3.437,0,0,1,3.119-1.719c2.277,0,3.985,1.488,3.985,4.686Z" fill="#fff"/>
  </g>
</svg>
