<?xml version="1.0" encoding="utf-8"?>
<!-- Generator: Adobe Illustrator 27.0.0, SVG Export Plug-In . SVG Version: 6.00 Build 0)  -->
<svg version="1.1" id="Layer_1" xmlns="http://www.w3.org/2000/svg" xmlns:xlink="http://www.w3.org/1999/xlink" x="0px" y="0px"
	 viewBox="0 0 25 25" style="enable-background:new 0 0 25 25;" xml:space="preserve">
<style type="text/css">
	.st0{fill:#FFFFFF;}
</style>
<g transform="translate(0.000000,25.000000) scale(0.100000,-0.100000)">
	<path class="st0" d="M122,207c-43-44-54-81-30-105c21-21,29-13,23,20c-5,28-1,38,29,67c22,21,40,31,51,28c24-10,29-36,11-56
		c-20-21-20-31-3-31c20,0,47,33,47,58c0,29-34,62-63,62C173,250,147,233,122,207z"/>
	<path class="st0" d="M135,127c6-30,2-37-30-66c-39-34-52-35-69-8c-8,12-6,21,7,35c20,22,22,32,4,32C27,120,0,87,0,62
		C0,34,34,0,60,0c32,0,110,78,110,109c0,26-16,51-32,51C133,160,132,145,135,127z"/>
</g>
</svg>
