<svg id="Twitter-High" xmlns="http://www.w3.org/2000/svg" width="32" height="32" viewBox="0 0 32 32">
  <rect id="_32x32px_Null_Bounding_Box" data-name="32x32px Null Bounding Box" width="32" height="32" fill="none"/>
  <g id="Group_14202" data-name="Group 14202" transform="translate(-83 -2161.333)">
    <path id="Path_10593" data-name="Path 10593" d="M99,2164a13.333,13.333,0,1,1-13.333,13.333A13.339,13.339,0,0,1,99,2164Zm-2.348,20.425a9.065,9.065,0,0,0,9.126-9.126c0-.14,0-.28-.007-.413a6.55,6.55,0,0,0,1.6-1.663,6.51,6.51,0,0,1-1.842.506,3.209,3.209,0,0,0,1.41-1.776,6.482,6.482,0,0,1-2.036.778,3.209,3.209,0,0,0-5.547,2.2,2.935,2.935,0,0,0,.086.732,9.1,9.1,0,0,1-6.612-3.353,3.23,3.23,0,0,0-.432,1.61,3.192,3.192,0,0,0,1.43,2.667,3.14,3.14,0,0,1-1.45-.4v.04a3.212,3.212,0,0,0,2.574,3.147,3.2,3.2,0,0,1-.844.113,3.075,3.075,0,0,1-.606-.06,3.2,3.2,0,0,0,2.994,2.228,6.45,6.45,0,0,1-3.985,1.37,5.893,5.893,0,0,1-.765-.046A8.938,8.938,0,0,0,96.652,2184.425Z" fill="#fff" fill-rule="evenodd"/>
  </g>
</svg>
