<?xml version="1.0" encoding="utf-8"?>
<!-- Generator: Adobe Illustrator 26.3.1, SVG Export Plug-In . SVG Version: 6.00 Build 0)  -->
<svg version="1.1" id="Layer_1" xmlns="http://www.w3.org/2000/svg" xmlns:xlink="http://www.w3.org/1999/xlink" x="0px" y="0px"
	 viewBox="0 0 440 181" style="enable-background:new 0 0 440 181;" xml:space="preserve">
<style type="text/css">
	.st0{fill:#2E1A47;}
	.st1{display:none;}
	.st2{display:inline;}
	.st3{clip-path:url(#SVGID_00000062155971808531635220000011667601919816914614_);}
	.st4{clip-path:url(#SVGID_00000093160339121357138160000006181529294781938358_);}
	.st5{fill:none;stroke:#A5A1C0;stroke-width:2;stroke-miterlimit:10;}
	.st6{clip-path:url(#SVGID_00000176756547253288113400000009450485812188773040_);}
	.st7{opacity:2.000000e-03;}
	.st8{clip-path:url(#SVGID_00000121241630514164547650000011022977675494862009_);}
	.st9{fill:#FFE2E2;}
	.st10{fill:none;stroke:#A5A1C0;stroke-width:2;stroke-linecap:round;}
	.st11{display:none;fill:none;stroke:#A5A1C0;stroke-width:2;stroke-linecap:round;stroke-linejoin:round;}
	.st12{clip-path:url(#SVGID_00000017502270667950308730000008800406836119172998_);}
	.st13{clip-path:url(#SVGID_00000018918557933049484230000008535119794340418177_);}
	.st14{fill:none;stroke:#A5A1C0;stroke-width:2;stroke-linecap:round;stroke-miterlimit:10;}
</style>
<g id="Rectangle_5503">
	<rect x="-1.34" y="-0.28" class="st0" width="442.33" height="182"/>
</g>
<g id="Group_17916" transform="translate(180 58)" class="st1">
	<g class="st2">
		<defs>
			<rect id="SVGID_1_" x="10.32" y="-10.29" width="59" height="86"/>
		</defs>
		<clipPath id="SVGID_00000097488313900966463570000004243404155404149941_">
			<use xlink:href="#SVGID_1_"  style="overflow:visible;"/>
		</clipPath>
		<g id="Group_17915" style="clip-path:url(#SVGID_00000097488313900966463570000004243404155404149941_);">
			<g id="Group_17909">
				<g>
					<defs>
						<rect id="SVGID_00000180345117951197284270000013494706277379596962_" x="10.32" y="-10.28" width="59" height="86"/>
					</defs>
					<clipPath id="SVGID_00000176036381832409519850000000520257638568381865_">
						<use xlink:href="#SVGID_00000180345117951197284270000013494706277379596962_"  style="overflow:visible;"/>
					</clipPath>
					<g id="Group_17908" style="clip-path:url(#SVGID_00000176036381832409519850000000520257638568381865_);">
						<path id="Path_12702" class="st5" d="M68.32,25.63v41.92c-0.08,4.04-3.41,7.24-7.44,7.17H18.44c-3.86,0.07-7.05-3-7.12-6.86
							V-2.11c0.08-4.03,3.41-7.25,7.44-7.17H45.3l21.66,20.84v2.34h-23.9V-9.29"/>
					</g>
				</g>
			</g>
			<g id="Group_17914">
				<g>
					<defs>
						<rect id="SVGID_00000034086095565201364620000007136140894808967816_" x="10.32" y="-10.29" width="59" height="86"/>
					</defs>
					<clipPath id="SVGID_00000005237260172455713000000002746153313203222670_">
						<use xlink:href="#SVGID_00000034086095565201364620000007136140894808967816_"  style="overflow:visible;"/>
					</clipPath>
					<g id="Group_17913" style="clip-path:url(#SVGID_00000005237260172455713000000002746153313203222670_);">
						<g id="Group_17912" class="st7">
							<g id="Group_17911">
								<g>
									<defs>
										<rect id="SVGID_00000109021984359814316960000009630831752867162517_" x="14.32" y="18.21" width="49.5" height="49.5"/>
									</defs>
									<clipPath id="SVGID_00000022542336141251053760000007228921400337047425_">
										<use xlink:href="#SVGID_00000109021984359814316960000009630831752867162517_"  style="overflow:visible;"/>
									</clipPath>
									<g id="Group_17910" style="clip-path:url(#SVGID_00000022542336141251053760000007228921400337047425_);">
										<rect id="Rectangle_5510" x="14.32" y="18.22" class="st9" width="49.5" height="49.5"/>
									</g>
								</g>
							</g>
						</g>
					</g>
				</g>
			</g>
			<path id="Path_12703" class="st10" d="M23.83,44.54l9.85-14.13l6.77,4.92l9.61-12.17"/>
			<rect id="Rectangle_5513" x="25.71" y="49.49" class="st10" width="5.94" height="8.68"/>
			<rect id="Rectangle_5514" x="37.09" y="44.16" class="st10" width="6.26" height="13.86"/>
			<rect id="Rectangle_5515" x="48.56" y="38.37" class="st10" width="6.26" height="19.8"/>
		</g>
	</g>
</g>
<path id="Path_12704" class="st11" d="M204.44,82.46h8.45 M204.44,93.81h19.79 M235.46,93.81h2.91 M204.44,105h19.79 M235.46,105
	h2.91 M204.44,116.18h19.79 M235.46,116.18h2.91"/>
<g id="Group_17918" class="st1">
	<g class="st2">
		<defs>
			<rect id="SVGID_00000000211931513052108860000008461577881890521749_" x="190.32" y="48.56" width="59" height="86"/>
		</defs>
		<clipPath id="SVGID_00000090995359320369763510000004634787159344342956_">
			<use xlink:href="#SVGID_00000000211931513052108860000008461577881890521749_"  style="overflow:visible;"/>
		</clipPath>
		<g id="Group_17917" style="clip-path:url(#SVGID_00000090995359320369763510000004634787159344342956_);">
			<path id="Path_12705" class="st5" d="M248.32,84.48v41.92c-0.08,4.04-3.41,7.25-7.44,7.17h-42.44c-3.86,0.07-7.05-3-7.12-6.86
				V56.74c0.08-4.03,3.41-7.24,7.44-7.17h26.53l21.66,20.84v2.34h-23.9V49.56"/>
		</g>
	</g>
</g>
<g>
	<defs>
		<rect id="SVGID_00000010306351593898122930000001416869515938760091_" x="191.41" y="48.57" width="56.82" height="86"/>
	</defs>
	<clipPath id="SVGID_00000060745468803969955360000016284112895914306742_">
		<use xlink:href="#SVGID_00000010306351593898122930000001416869515938760091_"  style="overflow:visible;"/>
	</clipPath>
	<g id="Group_17900" style="clip-path:url(#SVGID_00000060745468803969955360000016284112895914306742_);">
		<path id="Path_12696" class="st14" d="M247.23,89.55c0,15.14-12.27,27.41-27.41,27.41s-27.41-12.27-27.41-27.41"/>
		<line id="Line_2243" class="st14" x1="219.82" y1="116.96" x2="219.82" y2="133.57"/>
		<path id="Path_12697" class="st14" d="M219.82,103.74L219.82,103.74c-8.61-0.07-15.57-7.03-15.64-15.64V65.2
			c0-8.64,7-15.64,15.64-15.64c8.64,0,15.64,7,15.64,15.64v22.9c-0.02,4.5-1.96,8.78-5.32,11.77
			C227.27,102.34,223.61,103.71,219.82,103.74z"/>
	</g>
</g>
</svg>
