<svg xmlns="http://www.w3.org/2000/svg" xmlns:xlink="http://www.w3.org/1999/xlink" width="628" height="936" viewBox="0 0 628 936">
  <defs>
    <clipPath id="clip-path">
      <rect id="Rectangle_5917" data-name="Rectangle 5917" width="628" height="936" transform="translate(0 1578)" fill="#fff" stroke="#707070" stroke-width="1"/>
    </clipPath>
  </defs>
  <g id="Mask_Group_19782" data-name="Mask Group 19782" transform="translate(0 -1578)" clip-path="url(#clip-path)">
    <g id="Group_19638" data-name="Group 19638" transform="translate(9438.871 10879.476)">
      <path id="Path_13812" data-name="Path 13812" d="M284.8,969.08a25.315,25.315,0,0,1-50.63-.032,25.315,25.315,0,1,1,50.63.032" transform="translate(-9610.234 -9852.041)" fill="#e5f5f5"/>
      <path id="Path_13813" data-name="Path 13813" d="M317.117,960.226a24.908,24.908,0,0,1-49.815-.179,24.908,24.908,0,1,1,49.815.179" transform="translate(-9592.156 -9856.745)" fill="#e5f5f5"/>
      <path id="Path_13814" data-name="Path 13814" d="M276.322,992.593a24.792,24.792,0,0,1,49.582.339,24.792,24.792,0,1,1-49.582-.339" transform="translate(-9587.235 -9838.731)" fill="#e5f5f5"/>
      <path id="Path_13815" data-name="Path 13815" d="M250.493,960.671a24.722,24.722,0,1,1,24.9-24.636,24.645,24.645,0,0,1-24.9,24.636" transform="translate(-9614.716 -9869.765)" fill="#e5f5f5"/>
      <path id="Path_13816" data-name="Path 13816" d="M292.878,1001.461a24.72,24.72,0,1,1-24.8-24.681,24.74,24.74,0,0,1,24.8,24.681" transform="translate(-9605.176 -9834.002)" fill="#e5f5f5"/>
      <path id="Path_13817" data-name="Path 13817" d="M235.2,1035.071a24.722,24.722,0,1,1,24.831-24.7,24.648,24.648,0,0,1-24.831,24.7" transform="translate(-9623.096 -9829.175)" fill="#e5f5f5"/>
      <path id="Path_13818" data-name="Path 13818" d="M333.367,1008.578a24.634,24.634,0,1,1,24.921-24.533,24.666,24.666,0,0,1-24.921,24.533" transform="translate(-9569.396 -9843.532)" fill="#e5f5f5"/>
      <path id="Path_13819" data-name="Path 13819" d="M251.129,977.334a24.559,24.559,0,1,1-49.118.022,24.559,24.559,0,0,1,49.118-.022" transform="translate(-9627.777 -9847.062)" fill="#e5f5f5"/>
      <path id="Path_13820" data-name="Path 13820" d="M276.842,1009.826a24.5,24.5,0,0,1,.3,48.994,24.5,24.5,0,1,1-.3-48.994" transform="translate(-9600.263 -9815.973)" fill="#e5f5f5"/>
      <path id="Path_13821" data-name="Path 13821" d="M334,1025.544a24.441,24.441,0,0,1-48.881-.094,24.441,24.441,0,1,1,48.881.094" transform="translate(-9582.437 -9820.838)" fill="#e5f5f5"/>
      <path id="Path_13822" data-name="Path 13822" d="M349.193,951.309a24.29,24.29,0,1,1-24.148-24.426,24.278,24.278,0,0,1,24.148,24.426" transform="translate(-9573.983 -9861.224)" fill="#e5f5f5"/>
      <path id="Path_13823" data-name="Path 13823" d="M243.547,1067a24.209,24.209,0,1,1,24.63-23.809A24.162,24.162,0,0,1,243.547,1067" transform="translate(-9618.093 -9811.19)" fill="#e5f5f5"/>
      <path id="Path_13824" data-name="Path 13824" d="M283.018,951.148a24.084,24.084,0,0,1-.113-48.168,24.084,24.084,0,1,1,.113,48.168" transform="translate(-9596.674 -9874.265)" fill="#e5f5f5"/>
      <path id="Path_13825" data-name="Path 13825" d="M261.423,1066.765a24.085,24.085,0,0,1,48.169.292,24.085,24.085,0,1,1-48.169-.292" transform="translate(-9595.364 -9797.89)" fill="#e5f5f5"/>
      <path id="Path_13826" data-name="Path 13826" d="M241.43,944.492a23.937,23.937,0,1,1-23.811-23.856,23.942,23.942,0,0,1,23.811,23.856" transform="translate(-9632.39 -9864.632)" fill="#e5f5f5"/>
      <path id="Path_13827" data-name="Path 13827" d="M226.072,1018.586a23.782,23.782,0,1,1-23.812-23.66,23.747,23.747,0,0,1,23.812,23.66" transform="translate(-9640.599 -9824.102)" fill="#e5f5f5"/>
      <path id="Path_13828" data-name="Path 13828" d="M318.223,1081.4a23.489,23.489,0,1,1,23.389-23.635,23.459,23.459,0,0,1-23.389,23.635" transform="translate(-9577.245 -9802.554)" fill="#e5f5f5"/>
      <path id="Path_13829" data-name="Path 13829" d="M365.5,1016.437A23.416,23.416,0,1,1,342.377,993a23.392,23.392,0,0,1,23.122,23.435" transform="translate(-9564.134 -9825.152)" fill="#e5f5f5"/>
      <path id="Path_13830" data-name="Path 13830" d="M193.752,962.7a23.125,23.125,0,1,1-23.633,22.452A23.09,23.09,0,0,1,193.752,962.7" transform="translate(-9645.182 -9841.686)" fill="#e5f5f5"/>
      <path id="Path_13831" data-name="Path 13831" d="M343.016,974.854A22.758,22.758,0,0,1,365.6,951.766a23.01,23.01,0,0,1,23.389,22.769,23.247,23.247,0,0,1-23.069,23.2,23,23,0,0,1-22.9-22.884" transform="translate(-9550.85 -9847.648)" fill="#e5f5f5"/>
      <path id="Path_13832" data-name="Path 13832" d="M241.127,925.42a22.758,22.758,0,0,1-22.911-22.763,23.005,23.005,0,0,1,22.95-23.21,23.238,23.238,0,0,1,23.023,22.876,23,23,0,0,1-23.061,23.1" transform="translate(-9618.937 -9887.103)" fill="#e5f5f5"/>
      <path id="Path_13833" data-name="Path 13833" d="M187.933,1051.068a22.672,22.672,0,0,1,45.344-.022,22.672,22.672,0,1,1-45.344.022" transform="translate(-9635.458 -9805.772)" fill="#e5f5f5"/>
      <path id="Path_13834" data-name="Path 13834" d="M334.333,941.743a22.672,22.672,0,1,1,45.344.119,22.672,22.672,0,0,1-45.344-.119" transform="translate(-9555.587 -9865.479)" fill="#e5f5f5"/>
      <path id="Path_13835" data-name="Path 13835" d="M337.92,917.723a22.543,22.543,0,1,1-22.251-22.561,22.576,22.576,0,0,1,22.251,22.561" transform="translate(-9578.227 -9878.529)" fill="#e5f5f5"/>
      <path id="Path_13836" data-name="Path 13836" d="M274.283,1075.078a22.158,22.158,0,0,1-44.316-.167,22.158,22.158,0,1,1,44.316.167" transform="translate(-9612.525 -9792.529)" fill="#e5f5f5"/>
      <path id="Path_13837" data-name="Path 13837" d="M208.1,932.843a21.907,21.907,0,1,1,21.911-21.8,21.675,21.675,0,0,1-21.911,21.8" transform="translate(-9636.403 -9881.876)" fill="#e5f5f5"/>
      <path id="Path_13838" data-name="Path 13838" d="M251.867,893.277a21.765,21.765,0,0,1,43.529.042,21.765,21.765,0,1,1-43.529-.042" transform="translate(-9600.577 -9891.354)" fill="#e5f5f5"/>
      <path id="Path_13839" data-name="Path 13839" d="M293.491,1120.233a21.286,21.286,0,0,1-21.527-21.309,21.522,21.522,0,0,1,21.588-21.724A21.747,21.747,0,0,1,315,1098.8a21.522,21.522,0,0,1-21.508,21.434" transform="translate(-9589.613 -9779.217)" fill="#e5f5f5"/>
      <path id="Path_13840" data-name="Path 13840" d="M189.8,1026.578a21.264,21.264,0,1,1-21.231-21.16,21.225,21.225,0,0,1,21.231,21.16" transform="translate(-9657.64 -9818.377)" fill="#e5f5f5"/>
      <path id="Path_13841" data-name="Path 13841" d="M325.918,1068.844a21.187,21.187,0,0,1,.124,42.373,21.187,21.187,0,1,1-.124-42.373" transform="translate(-9571.728 -9783.774)" fill="#e5f5f5"/>
      <path id="Path_13842" data-name="Path 13842" d="M371.029,1048.234a21.123,21.123,0,0,1-20.918,21.14,21.377,21.377,0,0,1-21.326-21.211,21.122,21.122,0,0,1,42.243.071" transform="translate(-9558.613 -9806.532)" fill="#e5f5f5"/>
      <path id="Path_13843" data-name="Path 13843" d="M183.876,931.13a21.122,21.122,0,0,1,.009,42.243,21.376,21.376,0,0,1-21.179-21.357,21.124,21.124,0,0,1,21.17-20.887" transform="translate(-9649.221 -9858.906)" fill="#e5f5f5"/>
      <path id="Path_13844" data-name="Path 13844" d="M353.155,1006.374a20.63,20.63,0,1,1,20.653,20.791,20.578,20.578,0,0,1-20.653-20.791" transform="translate(-9545.318 -9829.023)" fill="#e5f5f5"/>
      <path id="Path_13845" data-name="Path 13845" d="M180.165,993.427a20.528,20.528,0,1,1-20.516-20.446,20.391,20.391,0,0,1,20.516,20.446" transform="translate(-9662.094 -9836.073)" fill="#e5f5f5"/>
      <path id="Path_13846" data-name="Path 13846" d="M347.381,928.466a20.445,20.445,0,0,1,.119-40.888,20.445,20.445,0,1,1-.119,40.888" transform="translate(-9559.515 -9882.666)" fill="#e5f5f5"/>
      <path id="Path_13847" data-name="Path 13847" d="M177.087,1039.06a20.1,20.1,0,1,1-.291,40.206,20.1,20.1,0,0,1,.291-40.206" transform="translate(-9652.392 -9800.024)" fill="#e5f5f5"/>
      <path id="Path_13848" data-name="Path 13848" d="M198.567,1082.946a19.956,19.956,0,0,1,39.911.062,19.956,19.956,0,1,1-39.911-.062" transform="translate(-9629.656 -9786.877)" fill="#e5f5f5"/>
      <path id="Path_13849" data-name="Path 13849" d="M231.339,888.585a19.862,19.862,0,1,1,19.95-19.683,19.827,19.827,0,0,1-19.95,19.683" transform="translate(-9622.564 -9903.79)" fill="#e5f5f5"/>
      <path id="Path_13850" data-name="Path 13850" d="M397.391,945.105a19.517,19.517,0,1,1-19.544,19.582,19.453,19.453,0,0,1,19.544-19.582" transform="translate(-9531.847 -9851.282)" fill="#e5f5f5"/>
      <path id="Path_13851" data-name="Path 13851" d="M305.3,864.371a19.1,19.1,0,0,1,19.381,19.171A19.325,19.325,0,1,1,305.3,864.371" transform="translate(-9581.938 -9895.327)" fill="#e5f5f5"/>
      <path id="Path_13852" data-name="Path 13852" d="M388.492,912.42a19.283,19.283,0,0,1,19.439,19.156,19.5,19.5,0,0,1-19.35,19.346,19.279,19.279,0,0,1-19.15-19.074,19.057,19.057,0,0,1,19.061-19.428" transform="translate(-9536.439 -9869.114)" fill="#e5f5f5"/>
      <path id="Path_13853" data-name="Path 13853" d="M377.379,1080.419a19.279,19.279,0,0,1-19.293,19.3,19.5,19.5,0,0,1-19.208-19.488,19.274,19.274,0,0,1,19.211-19.012,19.057,19.057,0,0,1,19.29,19.2" transform="translate(-9553.108 -9787.935)" fill="#e5f5f5"/>
      <path id="Path_13854" data-name="Path 13854" d="M259.7,1125.663a18.963,18.963,0,0,1-.1-37.927,19.131,19.131,0,0,1,19.055,19.145,18.922,18.922,0,0,1-18.959,18.782" transform="translate(-9606.651 -9773.469)" fill="#e5f5f5"/>
      <path id="Path_13855" data-name="Path 13855" d="M155.343,918.724a18.691,18.691,0,0,1,18.791-18.791,18.917,18.917,0,0,1,18.989,18.7,19.15,19.15,0,0,1-19.082,19.082,18.915,18.915,0,0,1-18.7-18.989" transform="translate(-9653.237 -9875.926)" fill="#e5f5f5"/>
      <path id="Path_13856" data-name="Path 13856" d="M263.808,878.257a18.8,18.8,0,1,1,18.658-18.972,18.842,18.842,0,0,1-18.658,18.972" transform="translate(-9604.398 -9908.268)" fill="#e5f5f5"/>
      <path id="Path_13857" data-name="Path 13857" d="M203.368,1091.26a18.321,18.321,0,1,1-18.312-18.446,18.3,18.3,0,0,1,18.312,18.446" transform="translate(-9647.026 -9781.608)" fill="#e5f5f5"/>
      <path id="Path_13858" data-name="Path 13858" d="M363.61,1038.394a18,18,0,0,1,18.14-18.034,18.206,18.206,0,0,1,18.309,18.326,18.4,18.4,0,0,1-18.228,18.125,18.206,18.206,0,0,1-18.221-18.417" transform="translate(-9539.614 -9810.227)" fill="#e5f5f5"/>
      <path id="Path_13859" data-name="Path 13859" d="M179.77,876.587A17.994,17.994,0,0,1,197.955,858.6a18.208,18.208,0,0,1,18.264,18.372,18.4,18.4,0,0,1-18.275,18.077,18.207,18.207,0,0,1-18.174-18.462" transform="translate(-9639.911 -9898.476)" fill="#e5f5f5"/>
      <path id="Path_13860" data-name="Path 13860" d="M379.408,880.687a17.614,17.614,0,0,1,17.67,18.02,17.819,17.819,0,0,1-17.742,17.672,18.019,18.019,0,0,1-17.949-17.927,17.818,17.818,0,0,1,18.02-17.765" transform="translate(-9540.827 -9886.427)" fill="#e5f5f5"/>
      <path id="Path_13861" data-name="Path 13861" d="M300.492,1147.518a17.393,17.393,0,0,1-17.276-17.569,17.614,17.614,0,0,1,17.386-17.188,17.389,17.389,0,0,1,17.366,17.481,17.207,17.207,0,0,1-17.476,17.276" transform="translate(-9583.478 -9759.815)" fill="#e5f5f5"/>
      <path id="Path_13862" data-name="Path 13862" d="M151.771,1034.166a17.273,17.273,0,1,1-17.143-17.311,17.227,17.227,0,0,1,17.143,17.311" transform="translate(-9674.034 -9812.139)" fill="#e5f5f5"/>
      <path id="Path_13863" data-name="Path 13863" d="M422.554,996.624a17.155,17.155,0,1,1-17.239-17.1,17.128,17.128,0,0,1,17.239,17.1" transform="translate(-9526.175 -9832.504)" fill="#e5f5f5"/>
      <path id="Path_13864" data-name="Path 13864" d="M125.476,1018.211a17.06,17.06,0,0,1-17.026-16.919,17.293,17.293,0,0,1,17.21-17.213,17.062,17.062,0,0,1,16.921,17.026,16.823,16.823,0,0,1-17.1,17.106" transform="translate(-9678.82 -9830.02)" fill="#e5f5f5"/>
      <path id="Path_13865" data-name="Path 13865" d="M320.536,874.212a16.862,16.862,0,1,1,16.74,16.8,16.867,16.867,0,0,1-16.74-16.8" transform="translate(-9563.114 -9899.192)" fill="#e5f5f5"/>
      <path id="Path_13866" data-name="Path 13866" d="M149.45,976.038a16.569,16.569,0,1,1,.015-33.138,16.569,16.569,0,0,1-.015,33.138" transform="translate(-9665.521 -9852.486)" fill="#e5f5f5"/>
      <path id="Path_13867" data-name="Path 13867" d="M159.448,1066.427a16.569,16.569,0,1,1-33.138.04,16.569,16.569,0,0,1,33.138-.04" transform="translate(-9669.077 -9794.088)" fill="#e5f5f5"/>
      <path id="Path_13868" data-name="Path 13868" d="M251.228,1138.348a16.442,16.442,0,0,1,32.883.074,16.442,16.442,0,1,1-32.883-.074" transform="translate(-9600.926 -9754.743)" fill="#e5f5f5"/>
      <path id="Path_13869" data-name="Path 13869" d="M333.012,1137.235a16.31,16.31,0,0,1-16.252-16.247,16.545,16.545,0,0,1,16.53-16.439,16.315,16.315,0,0,1,16.154,16.346,16.115,16.115,0,0,1-16.432,16.34" transform="translate(-9565.174 -9764.296)" fill="#e5f5f5"/>
      <path id="Path_13870" data-name="Path 13870" d="M389.794,1086.835a16.118,16.118,0,0,1-16.082-16.689,16.316,16.316,0,0,1,16.5-15.995,16.546,16.546,0,0,1,16.179,16.417,16.312,16.312,0,0,1-16.6,16.267" transform="translate(-9534.104 -9791.792)" fill="#e5f5f5"/>
      <path id="Path_13871" data-name="Path 13871" d="M365.838,1128.48a16.1,16.1,0,0,1-16.074-16.343,16.283,16.283,0,0,1,16.341-16.165,16.487,16.487,0,0,1,16.167,16.431,16.288,16.288,0,0,1-16.434,16.077" transform="translate(-9547.168 -9768.976)" fill="#e5f5f5"/>
      <path id="Path_13872" data-name="Path 13872" d="M148.209,884.826a16.139,16.139,0,1,1,16.213,16.251,16.122,16.122,0,0,1-16.213-16.251" transform="translate(-9657.13 -9892.913)" fill="#e5f5f5"/>
      <path id="Path_13873" data-name="Path 13873" d="M241.732,1114.337a15.81,15.81,0,0,1-15.976,15.986,15.98,15.98,0,0,1-16.06-15.975,16.147,16.147,0,0,1,16.051-16.062,15.981,15.981,0,0,1,15.986,16.051" transform="translate(-9623.584 -9767.712)" fill="#e5f5f5"/>
      <path id="Path_13874" data-name="Path 13874" d="M354.108,864.974A15.826,15.826,0,1,1,385.76,865a15.826,15.826,0,0,1-31.652-.026" transform="translate(-9544.798 -9903.659)" fill="#e5f5f5"/>
      <path id="Path_13875" data-name="Path 13875" d="M238.275,825.9a15.695,15.695,0,0,1,31.384-.516,15.695,15.695,0,1,1-31.384.516" transform="translate(-9607.993 -9924.955)" fill="#e5f5f5"/>
      <path id="Path_13876" data-name="Path 13876" d="M310.867,849.721a15.522,15.522,0,0,1-15.612,15.474,15.706,15.706,0,0,1-15.381-15.418,15.524,15.524,0,0,1,15.51-15.576,15.362,15.362,0,0,1,15.483,15.521" transform="translate(-9585.299 -9911.788)" fill="#e5f5f5"/>
      <path id="Path_13877" data-name="Path 13877" d="M444.309,954.271a15.52,15.52,0,0,1-15.522,15.564,15.721,15.721,0,0,1-15.474-15.7,15.528,15.528,0,0,1,15.425-15.293,15.363,15.363,0,0,1,15.572,15.431" transform="translate(-9512.499 -9854.7)" fill="#e5f5f5"/>
      <path id="Path_13878" data-name="Path 13878" d="M429.034,1028.688a15.368,15.368,0,1,1-15.244-15.4,15.309,15.309,0,0,1,15.244,15.4" transform="translate(-9520.689 -9814.084)" fill="#e5f5f5"/>
      <path id="Path_13879" data-name="Path 13879" d="M140.05,910.824a15.368,15.368,0,1,1-15.351,15.29,15.31,15.31,0,0,1,15.351-15.29" transform="translate(-9669.956 -9869.985)" fill="#e5f5f5"/>
      <path id="Path_13880" data-name="Path 13880" d="M136.155,1098.936a14.976,14.976,0,0,1,14.973-15.151,15.2,15.2,0,0,1,15.346,15.253,15.406,15.406,0,0,1-15.261,15.064,15.188,15.188,0,0,1-15.058-15.167" transform="translate(-9663.705 -9775.624)" fill="#e5f5f5"/>
      <path id="Path_13881" data-name="Path 13881" d="M437.553,1001.861A14.7,14.7,0,0,1,422.63,987.13a14.876,14.876,0,0,1,15.01-15.085,15.042,15.042,0,0,1,14.808,14.989,14.868,14.868,0,0,1-14.9,14.827" transform="translate(-9507.416 -9836.586)" fill="#e5f5f5"/>
      <path id="Path_13882" data-name="Path 13882" d="M131.427,908.259a14.7,14.7,0,0,1-15.034-14.615,14.873,14.873,0,0,1,14.891-15.2,15.039,15.039,0,0,1,14.922,14.875,14.867,14.867,0,0,1-14.78,14.941" transform="translate(-9674.487 -9887.65)" fill="#e5f5f5"/>
      <path id="Path_13883" data-name="Path 13883" d="M220.716,819.222a14.7,14.7,0,0,1,14.956,14.7,14.875,14.875,0,0,1-14.975,15.12,15.041,15.041,0,0,1-14.844-14.955,14.869,14.869,0,0,1,14.862-14.861" transform="translate(-9625.681 -9919.959)" fill="#e5f5f5"/>
      <path id="Path_13884" data-name="Path 13884" d="M192.8,1137.565a14.616,14.616,0,0,1-14.895-14.63,14.821,14.821,0,0,1,14.629-15,15.067,15.067,0,0,1,15,14.734,14.821,14.821,0,0,1-14.732,14.893" transform="translate(-9640.93 -9762.447)" fill="#e5f5f5"/>
      <path id="Path_13885" data-name="Path 13885" d="M116.007,952.784a14.7,14.7,0,1,1-14.85,14.307,14.723,14.723,0,0,1,14.85-14.307" transform="translate(-9682.801 -9847.093)" fill="#e5f5f5"/>
      <path id="Path_13886" data-name="Path 13886" d="M342.473,840.867a14.558,14.558,0,1,1-14.194-14.941,14.378,14.378,0,0,1,14.194,14.941" transform="translate(-9567.026 -9916.304)" fill="#e5f5f5"/>
      <path id="Path_13887" data-name="Path 13887" d="M412.409,1102.8a14.231,14.231,0,0,1-14.624,14.364,14.462,14.462,0,0,1-14.289-14.438,14.711,14.711,0,0,1,14.732-14.473,14.463,14.463,0,0,1,14.181,14.547" transform="translate(-9528.766 -9773.189)" fill="#e5f5f5"/>
      <path id="Path_13888" data-name="Path 13888" d="M286.068,802.39a13.834,13.834,0,0,1-.076,27.667,13.834,13.834,0,1,1,.076-27.667" transform="translate(-9589.552 -9929.142)" fill="#e5f5f5"/>
      <path id="Path_13889" data-name="Path 13889" d="M187.5,855.736a13.343,13.343,0,0,1-13.276-13.5,13.588,13.588,0,0,1,13.33-13.187,13.347,13.347,0,0,1,13.357,13.423A13.125,13.125,0,0,1,187.5,855.736" transform="translate(-9642.94 -9914.6)" fill="#e5f5f5"/>
      <path id="Path_13890" data-name="Path 13890" d="M401.416,868.7A13.341,13.341,0,0,1,388.3,855.4a13.6,13.6,0,0,1,13.491-13.4,13.354,13.354,0,0,1,13.2,13.584,13.132,13.132,0,0,1-13.57,13.1" transform="translate(-9526.146 -9907.529)" fill="#e5f5f5"/>
      <path id="Path_13891" data-name="Path 13891" d="M359.958,844.552a13.222,13.222,0,0,1,.3-26.442,13.222,13.222,0,1,1-.3,26.442" transform="translate(-9548.726 -9920.566)" fill="#e5f5f5"/>
      <path id="Path_13892" data-name="Path 13892" d="M246.841,1146.213a13.222,13.222,0,0,1-26.443.046,13.222,13.222,0,1,1,26.443-.046" transform="translate(-9617.746 -9748.78)" fill="#e5f5f5"/>
      <path id="Path_13893" data-name="Path 13893" d="M78.11,1008.7a13.222,13.222,0,0,1,26.443,0,13.222,13.222,0,1,1-26.443,0" transform="translate(-9695.373 -9823.788)" fill="#e5f5f5"/>
      <path id="Path_13894" data-name="Path 13894" d="M432.147,920.9a12.877,12.877,0,0,1-12.935,12.953,13.04,13.04,0,0,1-13.205-13.12,13.178,13.178,0,0,1,13-13.018A13.045,13.045,0,0,1,432.147,920.9" transform="translate(-9516.484 -9871.681)" fill="#e5f5f5"/>
      <path id="Path_13895" data-name="Path 13895" d="M106.649,947.3a13.042,13.042,0,0,1-13.122-13.2,13.07,13.07,0,1,1,26.139.331A12.876,12.876,0,0,1,106.649,947.3" transform="translate(-9686.962 -9864.348)" fill="#e5f5f5"/>
      <path id="Path_13896" data-name="Path 13896" d="M410.58,874.972a12.76,12.76,0,0,1,12.765,13.046A12.984,12.984,0,0,1,410.3,900.887a13.219,13.219,0,0,1-12.87-13.15,12.989,12.989,0,0,1,13.151-12.765" transform="translate(-9521.164 -9889.544)" fill="#e5f5f5"/>
      <path id="Path_13897" data-name="Path 13897" d="M434.383,1060.6a12.988,12.988,0,0,1-12.828,13.086,13.218,13.218,0,0,1-13.088-12.932,12.99,12.99,0,0,1,12.933-12.983,12.76,12.76,0,0,1,12.983,12.828" transform="translate(-9515.143 -9795.271)" fill="#e5f5f5"/>
      <path id="Path_13898" data-name="Path 13898" d="M287.829,1170.215a12.823,12.823,0,1,1-12.487-12.941,12.833,12.833,0,0,1,12.487,12.941" transform="translate(-9594.948 -9735.532)" fill="#e5f5f5"/>
      <path id="Path_13899" data-name="Path 13899" d="M82.681,962.872A12.824,12.824,0,1,1,69.7,975.724a12.787,12.787,0,0,1,12.977-12.851" transform="translate(-9699.958 -9841.59)" fill="#e5f5f5"/>
      <path id="Path_13900" data-name="Path 13900" d="M159.035,1117.911a12.822,12.822,0,1,1-12.754,12.673,12.831,12.831,0,0,1,12.754-12.673" transform="translate(-9658.182 -9757.006)" fill="#e5f5f5"/>
      <path id="Path_13901" data-name="Path 13901" d="M331.041,806.991a12.456,12.456,0,0,1-12.553,12.8A12.62,12.62,0,0,1,305.7,807.148a12.82,12.82,0,0,1,12.448-12.7,12.629,12.629,0,0,1,12.893,12.539" transform="translate(-9571.208 -9933.475)" fill="#e5f5f5"/>
      <path id="Path_13902" data-name="Path 13902" d="M154.62,863.471A12.453,12.453,0,0,1,141.84,850.9a12.622,12.622,0,0,1,12.667-12.766,12.819,12.819,0,0,1,12.674,12.47,12.622,12.622,0,0,1-12.561,12.87" transform="translate(-9660.604 -9909.644)" fill="#e5f5f5"/>
      <path id="Path_13903" data-name="Path 13903" d="M432.8,1018.944a12.385,12.385,0,0,1,12.488-12.436,12.594,12.594,0,0,1,12.624,12.4,12.81,12.81,0,0,1-12.768,12.717,12.6,12.6,0,0,1-12.344-12.678" transform="translate(-9501.869 -9817.783)" fill="#e5f5f5"/>
      <path id="Path_13904" data-name="Path 13904" d="M320.325,1161.163A12.6,12.6,0,0,1,307.84,1173.7a12.8,12.8,0,0,1-12.627-12.483,12.594,12.594,0,0,1,12.763-12.629,12.39,12.39,0,0,1,12.349,12.576" transform="translate(-9576.93 -9740.271)" fill="#e5f5f5"/>
      <path id="Path_13905" data-name="Path 13905" d="M99.97,1053.235a12.031,12.031,0,0,1-12.34-12.089,12.242,12.242,0,0,1,12.089-12.436,12.463,12.463,0,0,1,12.437,12.187,12.242,12.242,0,0,1-12.187,12.338" transform="translate(-9690.179 -9805.671)" fill="#e5f5f5"/>
      <path id="Path_13906" data-name="Path 13906" d="M85.228,901.215A12.027,12.027,0,0,1,97.3,888.861a12.238,12.238,0,0,1,12.451,12.072,12.461,12.461,0,0,1-12.17,12.453,12.247,12.247,0,0,1-12.357-12.171" transform="translate(-9691.489 -9881.967)" fill="#e5f5f5"/>
      <path id="Path_13907" data-name="Path 13907" d="M231.7,791.536a12.028,12.028,0,0,1,11.977-12.048,12.163,12.163,0,0,1,12.307,12.159,12.325,12.325,0,0,1-12.051,12.12A12.159,12.159,0,0,1,231.7,791.536" transform="translate(-9611.581 -9941.637)" fill="#e5f5f5"/>
      <path id="Path_13908" data-name="Path 13908" d="M108.542,1085.735A11.806,11.806,0,0,1,96.683,1073.7a11.974,11.974,0,1,1,11.859,12.032" transform="translate(-9685.24 -9787.623)" fill="#e5f5f5"/>
      <path id="Path_13909" data-name="Path 13909" d="M121.353,847.61a11.645,11.645,0,0,1,11.771,11.731,11.867,11.867,0,0,1-11.638,11.967,12.108,12.108,0,0,1-12.062-12.02,11.872,11.872,0,0,1,11.929-11.678" transform="translate(-9678.289 -9904.472)" fill="#e5f5f5"/>
      <path id="Path_13910" data-name="Path 13910" d="M457.327,976.713a11.7,11.7,0,1,1,11.527,11.96,11.682,11.682,0,0,1-11.527-11.96" transform="translate(-9488.487 -9840.279)" fill="#e5f5f5"/>
      <path id="Path_13911" data-name="Path 13911" d="M351.832,1152.277a11.7,11.7,0,1,1-11.664-11.8,11.7,11.7,0,0,1,11.664,11.8" transform="translate(-9558.807 -9744.696)" fill="#e5f5f5"/>
      <path id="Path_13912" data-name="Path 13912" d="M429.744,1103.939a11.193,11.193,0,0,1-11.266-11.3,11.332,11.332,0,0,1,11.44-11.174,11.2,11.2,0,0,1,11.029,11.162,11.074,11.074,0,0,1-11.2,11.309" transform="translate(-9509.681 -9776.888)" fill="#e5f5f5"/>
      <path id="Path_13913" data-name="Path 13913" d="M241.88,1189.182a10.91,10.91,0,0,1-11.177-10.83,11.114,11.114,0,0,1,11.108-11.372,11.35,11.35,0,0,1,11.1,11.117,11.113,11.113,0,0,1-11.026,11.085" transform="translate(-9612.125 -9730.236)" fill="#e5f5f5"/>
      <path id="Path_13914" data-name="Path 13914" d="M265.262,782.259a10.905,10.905,0,0,1,11.043-10.967,11.114,11.114,0,0,1,11.162,10.95A11.355,11.355,0,0,1,276.137,793.5a11.114,11.114,0,0,1-10.875-11.238" transform="translate(-9593.269 -9946.107)" fill="#e5f5f5"/>
      <path id="Path_13915" data-name="Path 13915" d="M449.1,944.227a10.906,10.906,0,0,1,10.833-11.174A11.117,11.117,0,0,1,471.3,944.164a11.351,11.351,0,0,1-11.12,11.093A11.11,11.11,0,0,1,449.1,944.227" transform="translate(-9492.973 -9857.858)" fill="#e5f5f5"/>
      <path id="Path_13916" data-name="Path 13916" d="M178.244,1163.126A10.938,10.938,0,1,1,167.676,1152a10.919,10.919,0,0,1,10.569,11.122" transform="translate(-9652.677 -9738.408)" fill="#e5f5f5"/>
      <path id="Path_13917" data-name="Path 13917" d="M199.945,1143.123a10.938,10.938,0,1,1-10.933,11.128,10.919,10.919,0,0,1,10.933-11.128" transform="translate(-9634.87 -9743.251)" fill="#e5f5f5"/>
      <path id="Path_13918" data-name="Path 13918" d="M392.057,810.721a10.939,10.939,0,1,1-10.805,10.888,10.928,10.928,0,0,1,10.805-10.888" transform="translate(-9529.989 -9924.598)" fill="#e5f5f5"/>
      <path id="Path_13919" data-name="Path 13919" d="M106.161,1105.535a10.633,10.633,0,1,1,10.156,11.041,10.659,10.659,0,0,1-10.156-11.041" transform="translate(-9680.075 -9769.321)" fill="#e5f5f5"/>
      <path id="Path_13920" data-name="Path 13920" d="M383.253,1142.787a10.646,10.646,0,0,1-10.394,10.768A10.756,10.756,0,0,1,362,1142.829a10.63,10.63,0,0,1,21.258-.042" transform="translate(-9540.496 -9749.157)" fill="#e5f5f5"/>
      <path id="Path_13921" data-name="Path 13921" d="M415.682,1134.219a10.177,10.177,0,0,1-10.406,10.211,10.34,10.34,0,0,1-10.2-10.128,10.514,10.514,0,0,1,10.3-10.476,10.326,10.326,0,0,1,10.3,10.392" transform="translate(-9522.449 -9753.779)" fill="#e5f5f5"/>
      <path id="Path_13922" data-name="Path 13922" d="M453.355,1040.6a10.173,10.173,0,0,1,10.326,10.292,10.333,10.333,0,0,1-10.385,10.312,10.514,10.514,0,0,1-10.219-10.185,10.335,10.335,0,0,1,10.278-10.419" transform="translate(-9496.262 -9799.184)" fill="#e5f5f5"/>
      <path id="Path_13923" data-name="Path 13923" d="M448.11,1125.438a10.065,10.065,0,0,1-10.363,9.854,9.933,9.933,0,0,1-9.853-10.3,10.059,10.059,0,0,1,10.3-9.913,10.22,10.22,0,0,1,9.915,10.362" transform="translate(-9504.545 -9758.554)" fill="#e5f5f5"/>
      <path id="Path_13924" data-name="Path 13924" d="M210.236,809.643a9.789,9.789,0,0,1-9.76-9.973,10,10,0,0,1,9.884-9.949A10.2,10.2,0,0,1,220.4,799.976a10,10,0,0,1-10.161,9.667" transform="translate(-9628.614 -9936.054)" fill="#e5f5f5"/>
      <path id="Path_13925" data-name="Path 13925" d="M72.606,951.724a9.787,9.787,0,0,1-9.89-9.845A10,10,0,0,1,72.47,931.8a10.208,10.208,0,0,1,10.168,10.122,10,10,0,0,1-10.032,9.8" transform="translate(-9703.771 -9858.541)" fill="#e5f5f5"/>
      <path id="Path_13926" data-name="Path 13926" d="M125.344,1148.312a9.768,9.768,0,1,1,.071-19.536,9.768,9.768,0,0,1-.071,19.536" transform="translate(-9674.924 -9751.078)" fill="#e5f5f5"/>
      <path id="Path_13927" data-name="Path 13927" d="M67.241,1016.052a9.837,9.837,0,0,1-9.9,9.861,9.733,9.733,0,0,1-9.633-9.714,9.636,9.636,0,0,1,9.858-9.82,9.738,9.738,0,0,1,9.675,9.674" transform="translate(-9711.958 -9817.854)" fill="#e5f5f5"/>
      <path id="Path_13928" data-name="Path 13928" d="M441.858,887.648a9.429,9.429,0,0,1-9.552-9.666,9.627,9.627,0,0,1,9.386-9.556,9.87,9.87,0,0,1,9.831,9.579,9.626,9.626,0,0,1-9.666,9.643" transform="translate(-9502.137 -9893.117)" fill="#e5f5f5"/>
      <path id="Path_13929" data-name="Path 13929" d="M154.1,817.288a9.433,9.433,0,0,1-9.821,9.4,9.626,9.626,0,0,1-9.4-9.539,9.858,9.858,0,0,1,9.731-9.68,9.627,9.627,0,0,1,9.49,9.822" transform="translate(-9664.403 -9926.373)" fill="#e5f5f5"/>
      <path id="Path_13930" data-name="Path 13930" d="M359.526,797.1a9.41,9.41,0,0,1-18.82.04,9.41,9.41,0,1,1,18.82-.04" transform="translate(-9552.109 -9937.159)" fill="#e5f5f5"/>
      <path id="Path_13931" data-name="Path 13931" d="M66.17,1039.488a9.3,9.3,0,0,1,9.195,9.59,9.411,9.411,0,1,1-9.195-9.59" transform="translate(-9707.137 -9799.791)" fill="#e5f5f5"/>
      <path id="Path_13932" data-name="Path 13932" d="M259.208,1210.285a9.412,9.412,0,0,1-18.822.232,9.412,9.412,0,1,1,18.822-.232" transform="translate(-9606.841 -9711.689)" fill="#e5f5f5"/>
      <path id="Path_13933" data-name="Path 13933" d="M78.543,867.357a9.063,9.063,0,0,1,9.114-9.184,9.265,9.265,0,0,1,9.372,9.022,9.508,9.508,0,0,1-9.4,9.468,9.27,9.27,0,0,1-9.091-9.306" transform="translate(-9695.137 -9898.709)" fill="#e5f5f5"/>
      <path id="Path_13934" data-name="Path 13934" d="M177.16,817.082a9.038,9.038,0,1,1,9.093-8.831,9.108,9.108,0,0,1-9.093,8.831" transform="translate(-9646.237 -9930.987)" fill="#e5f5f5"/>
      <path id="Path_13935" data-name="Path 13935" d="M48.24,974.206a9.038,9.038,0,0,1,.161,18.075,9.107,9.107,0,0,1-9.136-9.159,9,9,0,0,1,8.975-8.916" transform="translate(-9716.565 -9835.405)" fill="#e5f5f5"/>
      <path id="Path_13936" data-name="Path 13936" d="M485.982,1008.811a9.039,9.039,0,0,1-18.077.2,9.108,9.108,0,0,1,9.14-9.154,9,9,0,0,1,8.936,8.955" transform="translate(-9482.715 -9821.412)" fill="#e5f5f5"/>
      <path id="Path_13937" data-name="Path 13937" d="M459.585,910.638a9.04,9.04,0,0,1-18.078-.253,9.1,9.1,0,0,1,9.365-8.922,9.009,9.009,0,0,1,8.714,9.176" transform="translate(-9497.118 -9875.095)" fill="#e5f5f5"/>
      <path id="Path_13938" data-name="Path 13938" d="M282.421,1192.738a8.685,8.685,0,0,1,8.909,8.82,8.9,8.9,0,0,1-8.913,8.91,9.12,9.12,0,0,1-8.817-8.729,8.9,8.9,0,0,1,8.822-9" transform="translate(-9588.723 -9716.184)" fill="#e5f5f5"/>
      <path id="Path_13939" data-name="Path 13939" d="M348.009,1192.11a8.487,8.487,0,0,1-8.632-8.307,8.7,8.7,0,0,1,8.4-8.637,8.489,8.489,0,0,1,8.546,8.4,8.319,8.319,0,0,1-8.309,8.544" transform="translate(-9552.836 -9725.771)" fill="#e5f5f5"/>
      <path id="Path_13940" data-name="Path 13940" d="M207.891,1194.509a8.312,8.312,0,0,1-8.372-8.48,8.486,8.486,0,0,1,8.482-8.462,8.712,8.712,0,0,1,8.46,8.572,8.485,8.485,0,0,1-8.57,8.371" transform="translate(-9629.137 -9724.46)" fill="#e5f5f5"/>
      <path id="Path_13941" data-name="Path 13941" d="M306.56,1192.42a8.32,8.32,0,0,1,8.542-8.31,8.491,8.491,0,0,1,8.4,8.545,8.7,8.7,0,0,1-8.635,8.4,8.485,8.485,0,0,1-8.309-8.63" transform="translate(-9570.739 -9720.892)" fill="#e5f5f5"/>
      <path id="Path_13942" data-name="Path 13942" d="M485.244,1033.293a8.062,8.062,0,0,1,8.294,8.13,8.23,8.23,0,0,1-8.134,8.357,8.361,8.361,0,0,1-8.354-8.2,8.219,8.219,0,0,1,8.195-8.29" transform="translate(-9477.727 -9803.17)" fill="#e5f5f5"/>
      <path id="Path_13943" data-name="Path 13943" d="M424.542,844.7a8.057,8.057,0,0,1,8.213-8.209,8.225,8.225,0,0,1,8.272,8.216,8.353,8.353,0,0,1-8.276,8.27,8.218,8.218,0,0,1-8.208-8.278" transform="translate(-9506.372 -9910.538)" fill="#e5f5f5"/>
      <path id="Path_13944" data-name="Path 13944" d="M141.447,1170.946a7.962,7.962,0,0,1-8.062,7.889,8.074,8.074,0,0,1-8.052-7.966,8.245,8.245,0,0,1,8.315-8.142,8.081,8.081,0,0,1,7.8,8.219" transform="translate(-9669.609 -9732.559)" fill="#e5f5f5"/>
      <path id="Path_13945" data-name="Path 13945" d="M508.647,966.9a8.081,8.081,0,0,1-7.8,8.222,8.243,8.243,0,0,1-8.318-8.137,8.077,8.077,0,0,1,8.049-7.971,7.965,7.965,0,0,1,8.065,7.885" transform="translate(-9469.279 -9843.696)" fill="#e5f5f5"/>
      <path id="Path_13946" data-name="Path 13946" d="M469.285,1082.8a7.962,7.962,0,0,1-7.751,8.195,8.076,8.076,0,0,1-8.36-8.025,8.234,8.234,0,0,1,8.006-8.082,8.077,8.077,0,0,1,8.1,7.912" transform="translate(-9490.751 -9780.479)" fill="#e5f5f5"/>
      <path id="Path_13947" data-name="Path 13947" d="M274.408,748.607a8.086,8.086,0,0,1-7.906,8.117,8.26,8.26,0,0,1-8.21-8.255,8.084,8.084,0,0,1,8.162-7.859,7.963,7.963,0,0,1,7.953,8" transform="translate(-9597.073 -9962.848)" fill="#e5f5f5"/>
      <path id="Path_13948" data-name="Path 13948" d="M91.712,1154.836a7.966,7.966,0,0,1-7.853-8.1,8.078,8.078,0,0,1,8.006-8.014,8.24,8.24,0,0,1,8.1,8.354,8.076,8.076,0,0,1-8.255,7.759" transform="translate(-9692.235 -9745.651)" fill="#e5f5f5"/>
      <path id="Path_13949" data-name="Path 13949" d="M103.462,825.149a7.6,7.6,0,0,1,7.646-7.815,7.822,7.822,0,0,1,8,7.552,8.008,8.008,0,0,1-7.916,8.088,7.826,7.826,0,0,1-7.726-7.825" transform="translate(-9681.542 -9920.989)" fill="#e5f5f5"/>
      <path id="Path_13950" data-name="Path 13950" d="M307.975,780.345a7.82,7.82,0,0,1-8.018-7.53,8.011,8.011,0,0,1,7.895-8.11,7.825,7.825,0,0,1,7.748,7.805,7.593,7.593,0,0,1-7.624,7.834" transform="translate(-9574.344 -9949.702)" fill="#e5f5f5"/>
      <path id="Path_13951" data-name="Path 13951" d="M174.967,1186.934a7.592,7.592,0,0,1,7.672,7.788,7.824,7.824,0,0,1-7.7,7.851,8,8,0,0,1-7.944-8.062,7.824,7.824,0,0,1,7.972-7.578" transform="translate(-9646.882 -9719.35)" fill="#e5f5f5"/>
      <path id="Path_13952" data-name="Path 13952" d="M46.786,949.781a7.61,7.61,0,1,1-7.583-7.542,7.646,7.646,0,0,1,7.583,7.542" transform="translate(-9720.765 -9852.846)" fill="#e5f5f5"/>
      <path id="Path_13953" data-name="Path 13953" d="M224.145,1218.716a7.614,7.614,0,1,1-7.433-7.677,7.611,7.611,0,0,1,7.433,7.677" transform="translate(-9624.009 -9706.2)" fill="#e5f5f5"/>
      <path id="Path_13954" data-name="Path 13954" d="M420.368,1165.808a7.205,7.205,0,0,1-7.55,7.308,7.429,7.429,0,0,1-7.224-7.363,7.644,7.644,0,0,1,7.646-7.406,7.423,7.423,0,0,1,7.128,7.462" transform="translate(-9516.709 -9734.948)" fill="#e5f5f5"/>
      <path id="Path_13955" data-name="Path 13955" d="M516.369,999.581a7.43,7.43,0,0,1-7.3,7.289,7.659,7.659,0,0,1-7.473-7.584,7.427,7.427,0,0,1,7.77-7.184,7.206,7.206,0,0,1,7.006,7.479" transform="translate(-9464.336 -9825.646)" fill="#e5f5f5"/>
      <path id="Path_13956" data-name="Path 13956" d="M452.914,1157.147a7.113,7.113,0,0,1-7.037,7.043,7.242,7.242,0,0,1-7.227-7.277,7.106,7.106,0,0,1,7.462-6.975,6.961,6.961,0,0,1,6.8,7.208" transform="translate(-9498.676 -9739.535)" fill="#e5f5f5"/>
      <path id="Path_13957" data-name="Path 13957" d="M473.693,875.417a6.955,6.955,0,0,1-6.913-7.1,7.111,7.111,0,0,1,7.289-7.156,7.254,7.254,0,0,1,6.972,7.162,7.1,7.1,0,0,1-7.348,7.093" transform="translate(-9483.328 -9897.079)" fill="#e5f5f5"/>
      <path id="Path_13958" data-name="Path 13958" d="M61.229,875.154a7.106,7.106,0,0,1-7.165,7.278,7.265,7.265,0,0,1-7.094-7.045,7.113,7.113,0,0,1,7.23-7.215,6.95,6.95,0,0,1,7.029,6.981" transform="translate(-9712.362 -9893.253)" fill="#e5f5f5"/>
      <path id="Path_13959" data-name="Path 13959" d="M489.872,901.252a7.112,7.112,0,0,1-6.98,7.1,7.237,7.237,0,0,1-7.283-7.219,7.107,7.107,0,0,1,7.4-7.034,6.954,6.954,0,0,1,6.858,7.154" transform="translate(-9478.512 -9879.112)" fill="#e5f5f5"/>
      <path id="Path_13960" data-name="Path 13960" d="M167.709,767.559a7.256,7.256,0,0,1,7.091,7.412,7.113,7.113,0,0,1-7.227,6.847,6.965,6.965,0,0,1-7.028-7.349,7.1,7.1,0,0,1,7.164-6.91" transform="translate(-9650.401 -9948.145)" fill="#e5f5f5"/>
      <path id="Path_13961" data-name="Path 13961" d="M423.249,804.466a6.922,6.922,0,0,1,7.072,6.641,7.017,7.017,0,0,1-6.961,7.171,6.935,6.935,0,0,1-6.847-6.876,6.852,6.852,0,0,1,6.736-6.937" transform="translate(-9510.753 -9928.01)" fill="#e5f5f5"/>
      <path id="Path_13962" data-name="Path 13962" d="M63.1,914.969a6.861,6.861,0,0,1-7.059-6.613,6.942,6.942,0,0,1,6.89-7.2A7.038,7.038,0,0,1,69.852,908a6.944,6.944,0,0,1-6.757,6.967" transform="translate(-9707.417 -9875.26)" fill="#e5f5f5"/>
      <path id="Path_13963" data-name="Path 13963" d="M148.489,1203.124a6.7,6.7,0,0,1-6.776,6.439,6.494,6.494,0,0,1-6.528-6.955,6.692,6.692,0,0,1,6.859-6.341,6.92,6.92,0,0,1,6.445,6.858" transform="translate(-9664.239 -9714.262)" fill="#e5f5f5"/>
      <path id="Path_13964" data-name="Path 13964" d="M239.85,756.929a6.675,6.675,0,0,1-6.663,6.544,6.912,6.912,0,0,1-6.638-6.666,6.681,6.681,0,0,1,6.946-6.632,6.473,6.473,0,0,1,6.355,6.754" transform="translate(-9614.39 -9957.63)" fill="#e5f5f5"/>
      <path id="Path_13965" data-name="Path 13965" d="M200.5,758.983a6.908,6.908,0,0,1,6.542,6.762A6.686,6.686,0,0,1,200,772.273a6.473,6.473,0,0,1-6.256-6.847,6.679,6.679,0,0,1,6.76-6.443" transform="translate(-9632.289 -9952.825)" fill="#e5f5f5"/>
      <path id="Path_13966" data-name="Path 13966" d="M80.177,1080.6a6.521,6.521,0,0,1-6.471,6.244,6.34,6.34,0,0,1-6.261-6.743,6.182,6.182,0,0,1,6.578-5.991,6.349,6.349,0,0,1,6.154,6.49" transform="translate(-9701.195 -9780.903)" fill="#e5f5f5"/>
      <path id="Path_13967" data-name="Path 13967" d="M283.914,1233.2a6.347,6.347,0,0,1,6.383-6.267,6.517,6.517,0,0,1,6.358,6.724,6.351,6.351,0,0,1-6.629,6.01,6.189,6.189,0,0,1-6.113-6.467" transform="translate(-9583.095 -9697.53)" fill="#e5f5f5"/>
      <path id="Path_13968" data-name="Path 13968" d="M329.48,1224.655a6.177,6.177,0,0,1-6.209,6.371,6.345,6.345,0,0,1-6.532-6.113,6.508,6.508,0,0,1,6.457-6.623,6.339,6.339,0,0,1,6.283,6.365" transform="translate(-9565.187 -9702.243)" fill="#e5f5f5"/>
      <path id="Path_13969" data-name="Path 13969" d="M475.883,1115.15a6.344,6.344,0,0,1-6.4,6.255,6.519,6.519,0,0,1-6.349-6.366,6.342,6.342,0,0,1,6.643-6.366,6.191,6.191,0,0,1,6.1,6.478" transform="translate(-9485.315 -9762.048)" fill="#e5f5f5"/>
      <path id="Path_13970" data-name="Path 13970" d="M29.777,1023.94a6.523,6.523,0,0,1-6.451,6.266,6.342,6.342,0,0,1-6.283-6.723,6.181,6.181,0,0,1,6.558-6.012,6.351,6.351,0,0,1,6.176,6.47" transform="translate(-9728.692 -9811.805)" fill="#e5f5f5"/>
      <path id="Path_13971" data-name="Path 13971" d="M414.474,772.188a6.346,6.346,0,0,1,6.5,6.144,6.509,6.509,0,0,1-6.49,6.592,6.335,6.335,0,0,1-6.25-6.4,6.176,6.176,0,0,1,6.239-6.34" transform="translate(-9515.269 -9945.619)" fill="#e5f5f5"/>
      <path id="Path_13972" data-name="Path 13972" d="M386.413,1174.515a6.344,6.344,0,0,1-6.532,6.11,6.181,6.181,0,0,1-6.191-6.739,6.322,6.322,0,0,1,6.634-5.988,6.518,6.518,0,0,1,6.09,6.617" transform="translate(-9534.121 -9729.74)" fill="#e5f5f5"/>
      <path id="Path_13973" data-name="Path 13973" d="M82.513,1107.133a6.107,6.107,0,1,1-6.3,5.915,6.08,6.08,0,0,1,6.3-5.915" transform="translate(-9696.406 -9762.888)" fill="#e5f5f5"/>
      <path id="Path_13974" data-name="Path 13974" d="M83.874,833.521A6.109,6.109,0,1,1,77.9,827.3a6.124,6.124,0,0,1,5.978,6.224" transform="translate(-9698.894 -9915.554)" fill="#e5f5f5"/>
      <path id="Path_13975" data-name="Path 13975" d="M499.2,1073.149a6,6,0,0,1-5.824,6,5.87,5.87,0,0,1-5.836-5.538,5.746,5.746,0,0,1,5.566-6.113,5.867,5.867,0,0,1,6.094,5.654" transform="translate(-9472.005 -9784.513)" fill="#e5f5f5"/>
      <path id="Path_13976" data-name="Path 13976" d="M496.8,933.342a5.851,5.851,0,0,1-5.9,5.842,5.73,5.73,0,0,1-5.748-5.562,5.873,5.873,0,0,1,5.651-6.1,6.007,6.007,0,0,1,6,5.821" transform="translate(-9473.313 -9860.876)" fill="#e5f5f5"/>
      <path id="Path_13977" data-name="Path 13977" d="M105.8,1178.727a5.733,5.733,0,0,1-5.95,5.733,5.866,5.866,0,0,1-5.712-5.669,6,6,0,0,1,5.836-5.984,5.856,5.856,0,0,1,5.827,5.921" transform="translate(-9686.632 -9727.058)" fill="#e5f5f5"/>
      <path id="Path_13978" data-name="Path 13978" d="M387.355,786.935a5.85,5.85,0,0,1-5.895,5.85,5.73,5.73,0,0,1-5.756-5.555,5.874,5.874,0,0,1,5.641-6.108,6.006,6.006,0,0,1,6.009,5.813" transform="translate(-9533.019 -9940.747)" fill="#e5f5f5"/>
      <path id="Path_13979" data-name="Path 13979" d="M37.449,1056.211a5.563,5.563,0,0,1-5.368,5.493,5.751,5.751,0,0,1-5.68-5.638,5.564,5.564,0,0,1,5.824-5.4,5.375,5.375,0,0,1,5.224,5.549" transform="translate(-9723.583 -9793.696)" fill="#e5f5f5"/>
      <path id="Path_13980" data-name="Path 13980" d="M334.4,762.387a5.393,5.393,0,0,1,5.759-5,5.53,5.53,0,0,1,5.252,5.94,5.763,5.763,0,0,1-5.825,5.091,5.586,5.586,0,0,1-5.185-6.031" transform="translate(-9555.56 -9953.698)" fill="#e5f5f5"/>
      <path id="Path_13981" data-name="Path 13981" d="M5.762,952.262a5.371,5.371,0,0,1,5.287,5.487A5.559,5.559,0,0,1,5.375,963.3,5.788,5.788,0,0,1,0,957.729a5.562,5.562,0,0,1,5.762-5.467" transform="translate(-9737.986 -9847.379)" fill="#e5f5f5"/>
      <path id="Path_13982" data-name="Path 13982" d="M134.4,788.279a5.366,5.366,0,0,1-5.448-5.324,5.565,5.565,0,0,1,5.507-5.725A5.8,5.8,0,0,1,140,782.646a5.557,5.557,0,0,1-5.6,5.634" transform="translate(-9667.636 -9942.868)" fill="#e5f5f5"/>
      <path id="Path_13983" data-name="Path 13983" d="M49.326,1126.949a5.219,5.219,0,0,1-5.192-5.1,5.388,5.388,0,0,1,5.462-5.278,5.236,5.236,0,0,1,4.926,5.368,5,5,0,0,1-5.2,5.012" transform="translate(-9713.909 -9757.74)" fill="#e5f5f5"/>
      <path id="Path_13984" data-name="Path 13984" d="M464.415,829.815a4.842,4.842,0,0,1,4.909,4.876,5.049,5.049,0,0,1-5.051,4.816,4.838,4.838,0,0,1-4.651-4.768,4.687,4.687,0,0,1,4.793-4.924" transform="translate(-9487.234 -9914.18)" fill="#e5f5f5"/>
      <path id="Path_13985" data-name="Path 13985" d="M44.551,837.013a4.852,4.852,0,0,1,4.763,5.02,5.044,5.044,0,0,1-5.182,4.674,4.839,4.839,0,0,1-4.508-4.9,4.685,4.685,0,0,1,4.927-4.79" transform="translate(-9716.369 -9910.255)" fill="#e5f5f5"/>
      <path id="Path_13986" data-name="Path 13986" d="M29.254,920.809a4.854,4.854,0,0,1-4.811-4.974,5.044,5.044,0,0,1,5.142-4.719,4.835,4.835,0,0,1,4.553,4.859,4.694,4.694,0,0,1-4.884,4.833" transform="translate(-9724.654 -9869.829)" fill="#e5f5f5"/>
      <path id="Path_13987" data-name="Path 13987" d="M420.85,1202.569a4.848,4.848,0,0,1-4.722-5.057,5.059,5.059,0,0,1,5.219-4.633,4.843,4.843,0,0,1,4.467,4.941,4.684,4.684,0,0,1-4.964,4.75" transform="translate(-9510.967 -9716.113)" fill="#e5f5f5"/>
      <path id="Path_13988" data-name="Path 13988" d="M455.427,797.675a3.853,3.853,0,0,1,3.912,3.986,4.1,4.1,0,0,1-4.173,4.176,4.348,4.348,0,0,1-3.994-4.068,4.107,4.107,0,0,1,4.255-4.094" transform="translate(-9491.844 -9931.716)" fill="#e5f5f5"/>
      <path id="Path_13989" data-name="Path 13989" d="M334.541,729.756a4.108,4.108,0,0,1-3.909,4.073,4.3,4.3,0,0,1-4.258-4.159,4.1,4.1,0,0,1,4.349-3.992,3.881,3.881,0,0,1,3.818,4.079" transform="translate(-9559.93 -9970.996)" fill="#e5f5f5"/>
      <path id="Path_13990" data-name="Path 13990" d="M44.132,1088.717a3.868,3.868,0,0,1-4.043,3.853,4.1,4.1,0,0,1-4.111-4.236A4.318,4.318,0,0,1,40.1,1084.4a4.1,4.1,0,0,1,4.031,4.314" transform="translate(-9718.36 -9775.286)" fill="#e5f5f5"/>
      <path id="Path_13991" data-name="Path 13991" d="M516.676,1027.11a3.887,3.887,0,0,1,4.094,3.8,4.1,4.1,0,0,1-3.978,4.361,4.3,4.3,0,0,1-4.176-4.242,4.119,4.119,0,0,1,4.06-3.923" transform="translate(-9458.323 -9806.544)" fill="#e5f5f5"/>
      <path id="Path_13992" data-name="Path 13992" d="M355.062,1210.955a4.107,4.107,0,0,1,4.266,4.082,4.34,4.34,0,0,1-3.981,4.079,4.1,4.1,0,0,1-4.185-4.166,3.856,3.856,0,0,1,3.9-4" transform="translate(-9546.406 -9706.245)" fill="#e5f5f5"/>
      <path id="Path_13993" data-name="Path 13993" d="M298.016,734.316a3.859,3.859,0,0,1,3.882,4.014,4.1,4.1,0,0,1-4.2,4.145,4.321,4.321,0,0,1-3.964-4.1,4.108,4.108,0,0,1,4.284-4.063" transform="translate(-9577.737 -9966.282)" fill="#e5f5f5"/>
      <path id="Path_13994" data-name="Path 13994" d="M17.4,990.13a3.707,3.707,0,0,1-3.593,3.524,3.941,3.941,0,0,1-3.712-3.859,3.74,3.74,0,0,1,4.051-3.436A3.5,3.5,0,0,1,17.4,990.13" transform="translate(-9732.482 -9828.783)" fill="#e5f5f5"/>
      <path id="Path_13995" data-name="Path 13995" d="M375.781,753.576a3.7,3.7,0,0,1-3.5,3.61,3.5,3.5,0,0,1-3.8-3.6,3.733,3.733,0,0,1,3.425-3.7,3.933,3.933,0,0,1,3.878,3.694" transform="translate(-9536.958 -9957.791)" fill="#e5f5f5"/>
      <path id="Path_13996" data-name="Path 13996" d="M387.714,1202.348a3.507,3.507,0,0,1,3.614,3.431,3.71,3.71,0,0,1-3.623,3.872,3.936,3.936,0,0,1-3.694-3.878,3.738,3.738,0,0,1,3.7-3.425" transform="translate(-9528.487 -9710.94)" fill="#e5f5f5"/>
      <path id="Path_13997" data-name="Path 13997" d="M501.46,1101.725a3.7,3.7,0,0,1,3.617,3.5,3.5,3.5,0,0,1-3.6,3.8,3.735,3.735,0,0,1-3.708-3.42,3.935,3.935,0,0,1,3.689-3.882" transform="translate(-9466.424 -9765.836)" fill="#e5f5f5"/>
      <path id="Path_13998" data-name="Path 13998" d="M256.65,1244.869a3.732,3.732,0,0,1-3.678-3.448,3.942,3.942,0,0,1,3.716-3.856,3.722,3.722,0,0,1,3.6,3.9,3.514,3.514,0,0,1-3.638,3.408" transform="translate(-9599.977 -9691.728)" fill="#e5f5f5"/>
      <path id="Path_13999" data-name="Path 13999" d="M100.6,793.972a3.142,3.142,0,1,1,.252-6.28,3.139,3.139,0,0,1,3.008,3.073,3.175,3.175,0,0,1-3.26,3.207" transform="translate(-9684.755 -9937.162)" fill="#e5f5f5"/>
      <path id="Path_14000" data-name="Path 14000" d="M22.183,882.686a2.563,2.563,0,0,1-2.8,2.342,2.3,2.3,0,0,1-2.257-2.448,2.629,2.629,0,0,1,2.552-2.62,2.79,2.79,0,0,1,2.508,2.726" transform="translate(-9728.646 -9886.824)" fill="#e5f5f5"/>
      <path id="Path_14001" data-name="Path 14001" d="M181.916,1228.072a2.627,2.627,0,0,1-2.553-2.62,2.3,2.3,0,0,1,2.258-2.447,2.558,2.558,0,0,1,2.8,2.34,2.784,2.784,0,0,1-2.505,2.727" transform="translate(-9640.134 -9699.677)" fill="#e5f5f5"/>
    </g>
  </g>
</svg>
